<svg width="110" height="24" viewBox="0 0 110 24" fill="none" xmlns="http://www.w3.org/2000/svg">
<path d="M13.258 23L5.706 13.08V23H0.234V0.535999H5.706V10.392L13.194 0.535999H19.626L10.922 11.544L19.946 23H13.258ZM33.1705 23.224C31.0585 23.224 29.1172 22.7333 27.3465 21.752C25.5972 20.7707 24.1998 19.4053 23.1545 17.656C22.1305 15.8853 21.6185 13.9013 21.6185 11.704C21.6185 9.50667 22.1305 7.53333 23.1545 5.784C24.1998 4.03467 25.5972 2.66933 27.3465 1.688C29.1172 0.706666 31.0585 0.216 33.1705 0.216C35.2825 0.216 37.2132 0.706666 38.9625 1.688C40.7332 2.66933 42.1198 4.03467 43.1225 5.784C44.1465 7.53333 44.6585 9.50667 44.6585 11.704C44.6585 13.9013 44.1465 15.8853 43.1225 17.656C42.0985 19.4053 40.7118 20.7707 38.9625 21.752C37.2132 22.7333 35.2825 23.224 33.1705 23.224ZM33.1705 18.232C34.9625 18.232 36.3918 17.6347 37.4585 16.44C38.5465 15.2453 39.0905 13.6667 39.0905 11.704C39.0905 9.72 38.5465 8.14133 37.4585 6.968C36.3918 5.77333 34.9625 5.176 33.1705 5.176C31.3572 5.176 29.9065 5.76267 28.8185 6.936C27.7518 8.10933 27.2185 9.69867 27.2185 11.704C27.2185 13.688 27.7518 15.2773 28.8185 16.472C29.9065 17.6453 31.3572 18.232 33.1705 18.232ZM66.9668 0.535999L59.1908 15.576V23H53.7188V15.576L45.9428 0.535999H52.1508L56.5028 9.944L60.8228 0.535999H66.9668ZM83.1555 19.032H74.7715L73.4275 23H67.6995L75.8275 0.535999H82.1635L90.2915 23H84.4995L83.1555 19.032ZM81.7475 14.808L78.9635 6.584L76.2115 14.808H81.7475ZM109.885 7.768C109.885 9.06933 109.587 10.264 108.989 11.352C108.392 12.4187 107.475 13.2827 106.237 13.944C105 14.6053 103.464 14.936 101.629 14.936H98.2373V23H92.7653V0.535999H101.629C103.421 0.535999 104.936 0.845332 106.173 1.464C107.411 2.08267 108.339 2.936 108.957 4.024C109.576 5.112 109.885 6.36 109.885 7.768ZM101.213 10.584C102.259 10.584 103.037 10.3387 103.549 9.848C104.061 9.35733 104.317 8.664 104.317 7.768C104.317 6.872 104.061 6.17867 103.549 5.688C103.037 5.19733 102.259 4.952 101.213 4.952H98.2373V10.584H101.213Z" fill="white"/>
</svg>
