<svg width="128" height="47" viewBox="0 0 128 47" fill="none" xmlns="http://www.w3.org/2000/svg">
<rect width="128" height="47" rx="23.5" fill="#3775D1"/>
<path d="M30.4523 32.815L24.3915 24.6231V32.815H20V14.2643H24.3915V22.4033L30.401 14.2643H35.5629L28.5776 23.3547L35.8198 32.815H30.4523Z" fill="white"/>
<path d="M46.433 33C44.738 33 43.18 32.5948 41.759 31.7844C40.3551 30.974 39.2336 29.8465 38.3947 28.4019C37.5729 26.9397 37.162 25.3013 37.162 23.4868C37.162 21.6722 37.5729 20.0427 38.3947 18.5981C39.2336 17.1535 40.3551 16.026 41.759 15.2156C43.18 14.4052 44.738 14 46.433 14C48.128 14 49.6774 14.4052 51.0813 15.2156C52.5024 16.026 53.6152 17.1535 54.4199 18.5981C55.2417 20.0427 55.6526 21.6722 55.6526 23.4868C55.6526 25.3013 55.2417 26.9397 54.4199 28.4019C53.5981 29.8465 52.4853 30.974 51.0813 31.7844C49.6774 32.5948 48.128 33 46.433 33ZM46.433 28.8776C47.8712 28.8776 49.0183 28.3843 49.8743 27.3978C50.7475 26.4112 51.1841 25.1076 51.1841 23.4868C51.1841 21.8484 50.7475 20.5447 49.8743 19.5758C49.0183 18.5892 47.8712 18.096 46.433 18.096C44.9777 18.096 43.8135 18.5804 42.9403 19.5494C42.0843 20.5183 41.6563 21.8308 41.6563 23.4868C41.6563 25.1252 42.0843 26.4376 42.9403 27.4242C43.8135 28.3931 44.9777 28.8776 46.433 28.8776Z" fill="white"/>
<path d="M73.556 14.2643L67.3154 26.6843V32.815H62.9239V26.6843L56.6833 14.2643H61.6655L65.1582 22.0334L68.6252 14.2643H73.556Z" fill="white"/>
<path d="M86.5482 29.5382H79.8197L78.741 32.815H74.1441L80.6671 14.2643H85.7521L92.2751 32.815H87.6268L86.5482 29.5382ZM85.4182 26.0501L83.1839 19.2587L80.9753 26.0501H85.4182Z" fill="white"/>
<path d="M108 20.2364C108 21.3111 107.76 22.2976 107.281 23.1961C106.802 24.077 106.065 24.7904 105.072 25.3366C104.079 25.8827 102.847 26.1558 101.374 26.1558H98.652V32.815H94.2604V14.2643H101.374C102.812 14.2643 104.028 14.5197 105.021 15.0306C106.014 15.5415 106.759 16.2462 107.255 17.1446C107.752 18.0431 108 19.0737 108 20.2364ZM101.04 22.5619C101.879 22.5619 102.504 22.3593 102.915 21.9541C103.326 21.5489 103.531 20.9764 103.531 20.2364C103.531 19.4965 103.326 18.924 102.915 18.5188C102.504 18.1136 101.879 17.911 101.04 17.911H98.652V22.5619H101.04Z" fill="white"/>
</svg>
