<svg width="1920" height="282" viewBox="0 0 1920 282" fill="none" xmlns="http://www.w3.org/2000/svg">
<path d="M1231.64 61.2647C1294.65 44.7923 1492.16 42.2891 1583.04 43.0966L1958.68 0.704346L2012 181.174L974.753 281.704L959 61.2647C973.541 58.0348 1013.29 49.8793 1055.94 43.0966C1109.26 34.6182 1152.88 81.8552 1231.64 61.2647Z" fill="#2B69C5"/>
<path d="M1834.52 65.1217C1938.14 26.3328 2098.02 48.9597 2165 65.1217L2102.05 191.185C1650.92 214.62 758.576 234.58 798.282 126.941C847.915 -7.60727 1070.66 80.8797 1145.71 85.7283C1220.77 90.5769 1333.35 65.1217 1413.24 57.8489C1493.14 50.5761 1704.99 113.608 1834.52 65.1217Z" fill="#51A7E4"/>
<path d="M1980.28 85.5539C2044.21 96.2339 2099.74 81.1038 2119.52 72.2038L2151 104.972L1980.28 205.704L1190.85 195.995L916 104.972C1123.04 44.29 1239.28 72.2038 1325.25 117.108C1411.21 162.013 1549.24 101.331 1665.48 72.2038C1781.71 43.0764 1900.37 72.2038 1980.28 85.5539Z" fill="#62C7EA"/>
<path d="M426.359 61.2647C363.349 44.7923 165.835 42.2891 74.9551 43.0966L-300.684 0.704346L-354 181.174L683.247 281.704L699 61.2647C684.459 58.0348 644.714 49.8793 602.061 43.0966C548.745 34.6182 505.122 81.8552 426.359 61.2647Z" fill="#2B69C5"/>
<path d="M-176.518 65.1217C-280.142 26.3328 -440.016 48.9597 -507 65.1217L-444.051 191.185C7.08276 214.62 899.424 234.58 859.718 126.941C810.085 -7.60727 587.343 80.8797 512.288 85.7283C437.234 90.5769 324.652 65.1217 244.755 57.8489C164.859 50.5761 -46.9887 113.608 -176.518 65.1217Z" fill="#51A7E4"/>
<path d="M-322.279 85.5539C-386.209 96.2339 -441.743 81.1038 -461.52 72.2038L-493 104.972L-322.279 205.704L467.152 195.995L742 104.972C534.956 44.29 418.721 72.2038 332.755 117.108C246.789 162.013 108.76 101.331 -7.47549 72.2038C-123.711 43.0764 -242.368 72.2038 -322.279 85.5539Z" fill="#62C7EA"/>
</svg>
