<svg width="260" height="156" viewBox="0 0 260 156" fill="none" xmlns="http://www.w3.org/2000/svg">
<g filter="url(#filter0_d_829_521)">
<g filter="url(#filter1_d_829_521)">
<path fill-rule="evenodd" clip-rule="evenodd" d="M226 46C226 41.5817 222.418 38 218 38H42C37.5817 38 34 41.5817 34 46V104C34 108.418 37.5817 112 42 112H218C222.418 112 226 108.418 226 104V91C226 90.4477 225.552 90 225 90C216.716 90 210 83.2843 210 75C210 66.7157 216.716 60 225 60C225.552 60 226 59.5523 226 59V46Z" fill="#FFC93F"/>
</g>
<path d="M115.552 63.384C115.552 64.0347 115.403 64.632 115.104 65.176C114.805 65.7093 114.347 66.1413 113.728 66.472C113.109 66.8027 112.341 66.968 111.424 66.968L109.728 66.968L109.728 71L106.992 71L106.992 59.768L111.424 59.768C112.32 59.768 113.077 59.9227 113.696 60.232C114.315 60.5413 114.779 60.968 115.088 61.512C115.397 62.056 115.552 62.68 115.552 63.384ZM111.216 64.792C111.739 64.792 112.128 64.6693 112.384 64.424C112.64 64.1787 112.768 63.832 112.768 63.384C112.768 62.936 112.64 62.5893 112.384 62.344C112.128 62.0987 111.739 61.976 111.216 61.976L109.728 61.976L109.728 64.792L111.216 64.792ZM122.704 71L120.368 66.76L119.712 66.76L119.712 71L116.976 71L116.976 59.768L121.568 59.768C122.454 59.768 123.206 59.9227 123.824 60.232C124.454 60.5413 124.923 60.968 125.232 61.512C125.542 62.0453 125.696 62.6427 125.696 63.304C125.696 64.0507 125.483 64.7173 125.056 65.304C124.64 65.8907 124.022 66.3067 123.2 66.552L125.792 71L122.704 71ZM119.712 64.824L121.408 64.824C121.91 64.824 122.283 64.7013 122.528 64.456C122.784 64.2107 122.912 63.864 122.912 63.416C122.912 62.9893 122.784 62.6533 122.528 62.408C122.283 62.1627 121.91 62.04 121.408 62.04L119.712 62.04L119.712 64.824ZM130.15 59.768L130.15 71L127.414 71L127.414 59.768L130.15 59.768ZM131.669 65.368C131.669 64.2587 131.909 63.272 132.389 62.408C132.869 61.5333 133.535 60.856 134.389 60.376C135.253 59.8853 136.229 59.64 137.317 59.64C138.65 59.64 139.791 59.992 140.741 60.696C141.69 61.4 142.325 62.36 142.645 63.576L139.637 63.576C139.413 63.1067 139.093 62.7493 138.677 62.504C138.271 62.2587 137.807 62.136 137.285 62.136C136.442 62.136 135.759 62.4293 135.237 63.016C134.714 63.6027 134.453 64.3867 134.453 65.368C134.453 66.3493 134.714 67.1333 135.237 67.72C135.759 68.3067 136.442 68.6 137.285 68.6C137.807 68.6 138.271 68.4773 138.677 68.232C139.093 67.9867 139.413 67.6293 139.637 67.16L142.645 67.16C142.325 68.376 141.69 69.336 140.741 70.04C139.791 70.7333 138.65 71.08 137.317 71.08C136.229 71.08 135.253 70.84 134.389 70.36C133.535 69.8693 132.869 69.192 132.389 68.328C131.909 67.464 131.669 66.4773 131.669 65.368ZM147.056 61.96L147.056 64.232L150.72 64.232L150.72 66.344L147.056 66.344L147.056 68.808L151.2 68.808L151.2 71L144.32 71L144.32 59.768L151.2 59.768L151.2 61.96L147.056 61.96ZM106.528 85.368C106.528 84.2587 106.768 83.272 107.248 82.408C107.728 81.5333 108.395 80.856 109.248 80.376C110.112 79.8853 111.088 79.64 112.176 79.64C113.509 79.64 114.651 79.992 115.6 80.696C116.549 81.4 117.184 82.36 117.504 83.576L114.496 83.576C114.272 83.1067 113.952 82.7493 113.536 82.504C113.131 82.2587 112.667 82.136 112.144 82.136C111.301 82.136 110.619 82.4293 110.096 83.016C109.573 83.6027 109.312 84.3867 109.312 85.368C109.312 86.3493 109.573 87.1333 110.096 87.72C110.619 88.3067 111.301 88.6 112.144 88.6C112.667 88.6 113.131 88.4773 113.536 88.232C113.952 87.9867 114.272 87.6293 114.496 87.16L117.504 87.16C117.184 88.376 116.549 89.336 115.6 90.04C114.651 90.7333 113.509 91.08 112.176 91.08C111.088 91.08 110.112 90.84 109.248 90.36C108.395 89.8693 107.728 89.192 107.248 88.328C106.768 87.464 106.528 86.4773 106.528 85.368ZM128.907 79.768L128.907 91L126.171 91L126.171 86.376L121.915 86.376L121.915 91L119.179 91L119.179 79.768L121.915 79.768L121.915 84.168L126.171 84.168L126.171 79.768L128.907 79.768ZM137.875 89.016L133.683 89.016L133.011 91L130.147 91L134.211 79.768L137.379 79.768L141.443 91L138.547 91L137.875 89.016ZM137.171 86.904L135.779 82.792L134.403 86.904L137.171 86.904ZM145.415 88.888L148.999 88.888L148.999 91L142.679 91L142.679 79.768L145.415 79.768L145.415 88.888ZM153.04 88.888L156.624 88.888L156.624 91L150.304 91L150.304 79.768L153.04 79.768L153.04 88.888ZM160.665 81.96L160.665 84.232L164.329 84.232L164.329 86.344L160.665 86.344L160.665 88.808L164.809 88.808L164.809 91L157.929 91L157.929 79.768L164.809 79.768L164.809 81.96L160.665 81.96ZM176.634 91L173.898 91L169.322 84.072L169.322 91L166.586 91L166.586 79.768L169.322 79.768L173.898 86.728L173.898 79.768L176.634 79.768L176.634 91ZM186.073 83.32C185.87 82.9467 185.577 82.664 185.193 82.472C184.82 82.2693 184.377 82.168 183.865 82.168C182.98 82.168 182.27 82.4613 181.737 83.048C181.204 83.624 180.937 84.3973 180.937 85.368C180.937 86.4027 181.214 87.2133 181.769 87.8C182.334 88.376 183.108 88.664 184.089 88.664C184.761 88.664 185.326 88.4933 185.785 88.152C186.254 87.8107 186.596 87.32 186.809 86.68L183.337 86.68L183.337 84.664L189.289 84.664L189.289 87.208C189.086 87.8907 188.74 88.5253 188.249 89.112C187.769 89.6987 187.156 90.1733 186.409 90.536C185.662 90.8987 184.82 91.08 183.881 91.08C182.772 91.08 181.78 90.84 180.905 90.36C180.041 89.8693 179.364 89.192 178.873 88.328C178.393 87.464 178.153 86.4773 178.153 85.368C178.153 84.2587 178.393 83.272 178.873 82.408C179.364 81.5333 180.041 80.856 180.905 80.376C181.769 79.8853 182.756 79.64 183.865 79.64C185.209 79.64 186.34 79.9653 187.257 80.616C188.185 81.2667 188.798 82.168 189.097 83.32L186.073 83.32ZM193.54 81.96L193.54 84.232L197.204 84.232L197.204 86.344L193.54 86.344L193.54 88.808L197.684 88.808L197.684 91L190.804 91L190.804 79.768L197.684 79.768L197.684 81.96L193.54 81.96Z" fill="#263954"/>
</g>
<g clip-path="url(#clip0_829_521)">
<path d="M30.2474 40.9199L21.0581 31.424C19.6603 29.9804 19.6603 27.6386 21.0581 26.1951C22.456 24.7507 24.7215 24.7507 26.1186 26.1951L35.3086 35.6902L30.2474 40.9199Z" fill="#F8696E"/>
<path d="M48.9213 103C45.1766 103 42.1406 99.8641 42.1406 95.9939L42.1406 86.8477L55.7021 86.8477L55.7021 95.9939C55.7021 99.8641 52.6661 103 48.9213 103Z" fill="#F8696E"/>
<path d="M78.2827 92.3424C74.5379 92.3424 71.502 89.2061 71.502 85.3367L71.502 76.1897L85.0626 76.1897L85.0626 85.3367C85.0626 89.2061 82.0274 92.3424 78.2827 92.3424Z" fill="#F8696E"/>
<path d="M26.7897 89.5006C23.045 89.5006 20.0098 86.3636 20.0098 82.4942L20.0098 68.1387L33.5704 68.1387L33.5704 82.4942C33.5704 86.3636 30.5345 89.5006 26.7897 89.5006Z" fill="#F8696E"/>
<path d="M19.9997 38.7044C10.7511 55.2563 18.3524 77.6822 36.9773 88.7938C55.6023 99.9054 78.1986 95.4946 87.4479 78.9427C96.6965 62.3908 89.0952 39.9649 70.4703 28.8533C51.8446 17.7425 29.2483 22.1525 19.9997 38.7044Z" fill="#FF8F93"/>
<path d="M48.2865 54.5283C50.454 51.8966 53.0671 49.4299 56.0787 47.2689C56.859 46.7094 57.6484 46.186 58.4439 45.6925L56.8392 43.3625C55.0102 40.7064 51.2418 40.5147 48.4234 42.935C45.6042 45.3546 44.8026 49.4692 46.6316 52.1253L48.2865 54.5283Z" fill="#FFADB0"/>
<path d="M83.3039 41.1665L83.6933 37.9037C84.0584 34.8437 82.0308 32.6749 79.1645 33.0599C76.2989 33.445 73.6797 36.2378 73.3146 39.2978L73.1914 40.3327C76.8251 39.9068 80.2779 40.1834 83.3039 41.1665Z" fill="#FFADB0"/>
<path d="M81.3819 40.6525L81.5971 38.8522C81.8199 36.9788 80.5788 35.6507 78.8243 35.8865C77.0698 36.1222 75.4658 37.8322 75.2423 39.7056L75.1875 40.1661C77.3557 40.0655 79.438 40.2297 81.3819 40.6525Z" fill="white"/>
<path d="M50.056 52.5239C51.8318 50.6427 53.8464 48.8714 56.08 47.2691C56.1477 47.2204 56.2154 47.1748 56.2838 47.1269L55.2663 45.6503C54.1468 44.0236 51.8394 43.9066 50.1138 45.3886C48.3882 46.8699 47.8969 49.3893 49.0164 51.0151L50.056 52.5239Z" fill="white"/>
<path d="M91.8011 67.3188C91.8011 72.6554 87.5095 79.5416 82.2163 82.6998C76.9224 85.8581 72.6309 84.0915 72.6309 78.755C72.6309 73.4176 76.9224 66.5314 82.2163 63.3732C87.5095 60.2157 91.8011 61.9815 91.8011 67.3188Z" fill="#F8696E"/>
<path d="M78.3976 81.0943L78.1672 81.2318C77.3132 81.741 76.6211 81.2003 76.6211 80.024L76.6211 72.7236C76.6211 71.5472 77.3132 70.1807 78.1672 69.6715L78.3976 69.5332C79.2517 69.024 79.9438 69.5646 79.9438 70.741L79.9438 78.0421C79.9438 79.2185 79.2517 80.585 78.3976 81.0943Z" fill="#263954"/>
<path d="M86.2609 76.4021L86.0305 76.5396C85.1764 77.0496 84.4844 76.5082 84.4844 75.3326L84.4844 68.0315C84.4844 66.8551 85.1764 65.4886 86.0305 64.9793L86.2609 64.841C87.115 64.3318 87.807 64.8725 87.807 66.0488L87.807 73.35C87.807 74.5264 87.115 75.8929 86.2609 76.4021Z" fill="#263954"/>
<path d="M70.4407 62.7669C70.4407 64.3715 69.1813 65.6737 67.6276 65.6737C66.0739 65.6737 64.8145 64.3715 64.8145 62.7669C64.8145 61.1614 66.0739 59.8601 67.6276 59.8601C69.1813 59.8601 70.4407 61.1614 70.4407 62.7669Z" fill="#263954"/>
<path d="M88.9614 54.8523C88.9614 56.4578 87.702 57.7591 86.1483 57.7591C84.5953 57.7591 83.3359 56.4578 83.3359 54.8523C83.3359 53.2469 84.5953 51.9456 86.1483 51.9456C87.702 51.9456 88.9614 53.2469 88.9614 54.8523Z" fill="#263954"/>
<path d="M63.9885 42.4244C63.2607 42.4244 62.5336 42.1305 61.9899 41.5459C61.9328 41.4846 56.1712 35.4038 46.1712 31.6169C44.7331 31.0724 43.9947 29.4261 44.5217 27.9401C45.0487 26.4541 46.642 25.691 48.0801 26.2356C59.3524 30.5042 65.7255 37.2898 65.9917 37.5767C67.0511 38.72 67.013 40.5345 65.9065 41.6292C65.3696 42.1604 64.6783 42.4244 63.9885 42.4244Z" fill="#263954"/>
<path d="M68.5714 21.2275C68.5714 13.5288 64.0418 4.58526 58.4535 1.25178C56.1195 -0.140704 53.9711 -0.330088 52.2592 0.478528L52.2576 0.474599L47.7463 3.1912C47.7463 3.1912 44 4.74871 44 11.785C44 19.483 48.5296 28.4273 54.1178 31.7607C56.8831 33.4102 59.3882 33.3748 61.2149 31.9871L61.2157 31.9886L65.0723 29.6791C67.2146 28.4005 68.5714 25.4388 68.5714 21.2275Z" fill="#FFAC0E"/>
<path d="M64.2325 23.857C64.2325 31.5557 59.7022 35.0943 54.1147 31.7608C48.5265 28.4273 43.9961 19.4838 43.9961 11.7851C43.9961 4.08632 48.5265 0.547745 54.1147 3.88122C59.7022 7.2147 64.2325 16.1582 64.2325 23.857Z" fill="#FFEDCB"/>
<path d="M61.0653 21.9645C61.0653 27.2492 57.9556 29.6782 54.1196 27.3899C50.2836 25.1015 47.1738 18.9619 47.1738 13.6772C47.1738 8.3925 50.2836 5.96351 54.1196 8.25184C57.9556 10.5402 61.0653 16.6798 61.0653 21.9645Z" fill="#FFAC0E"/>
<path d="M58.9062 20.6799C58.9062 24.3262 56.7608 26.0015 54.1142 24.4228C51.4677 22.8441 49.3223 18.6085 49.3223 14.9622C49.3223 11.3168 51.4677 9.64061 54.1142 11.2193C56.7608 12.7981 58.9062 17.0337 58.9062 20.6799Z" fill="#FFEDCB"/>
</g>
<defs>
<filter id="filter0_d_829_521" x="0" y="14" width="260" height="142" filterUnits="userSpaceOnUse" color-interpolation-filters="sRGB">
<feFlood flood-opacity="0" result="BackgroundImageFix"/>
<feColorMatrix in="SourceAlpha" type="matrix" values="0 0 0 0 0 0 0 0 0 0 0 0 0 0 0 0 0 0 127 0" result="hardAlpha"/>
<feOffset dy="10"/>
<feGaussianBlur stdDeviation="17"/>
<feComposite in2="hardAlpha" operator="out"/>
<feColorMatrix type="matrix" values="0 0 0 0 1 0 0 0 0 0.788235 0 0 0 0 0.247059 0 0 0 0.16 0"/>
<feBlend mode="normal" in2="BackgroundImageFix" result="effect1_dropShadow_829_521"/>
<feBlend mode="normal" in="SourceGraphic" in2="effect1_dropShadow_829_521" result="shape"/>
</filter>
<filter id="filter1_d_829_521" x="0" y="14" width="260" height="142" filterUnits="userSpaceOnUse" color-interpolation-filters="sRGB">
<feFlood flood-opacity="0" result="BackgroundImageFix"/>
<feColorMatrix in="SourceAlpha" type="matrix" values="0 0 0 0 0 0 0 0 0 0 0 0 0 0 0 0 0 0 127 0" result="hardAlpha"/>
<feOffset dy="10"/>
<feGaussianBlur stdDeviation="17"/>
<feComposite in2="hardAlpha" operator="out"/>
<feColorMatrix type="matrix" values="0 0 0 0 1 0 0 0 0 0.788235 0 0 0 0 0.247059 0 0 0 0.16 0"/>
<feBlend mode="normal" in2="BackgroundImageFix" result="effect1_dropShadow_829_521"/>
<feBlend mode="normal" in="SourceGraphic" in2="effect1_dropShadow_829_521" result="shape"/>
</filter>
<clipPath id="clip0_829_521">
<rect width="102" height="103" fill="white" transform="translate(4)"/>
</clipPath>
</defs>
</svg>
