<svg width="1000" height="193" viewBox="0 0 1000 193" fill="none" xmlns="http://www.w3.org/2000/svg">
<path fill-rule="evenodd" clip-rule="evenodd" d="M68.9204 38.1687V39.1905L68.207 64.4112L68.1097 67.8659L67.7529 82.755L60.9265 94.4652L55.2026 104.197C58.9807 104.197 56.2566 105.721 48.7166 108.089C46.6573 108.738 44.2089 109.452 41.4523 110.214C36.8473 111.479 31.3504 112.89 25.1077 114.415C17.9083 116.166 9.71976 118.048 0.785309 119.994C-19.1428 124.308 -42.849 128.882 -67.7876 132.969C-75.0032 134.137 -82.381 135.24 -89.6777 136.213L-91.0235 136.408L-96.8771 137.219C-107.774 138.711 -118.719 140.025 -129.518 141.111C-158.786 144.096 -186.821 145.393 -209.846 143.771C-227.294 142.539 -241.887 139.619 -252.005 134.478C-264.702 127.99 -270.198 117.951 -265.123 103.24C-264.577 101.662 -263.949 100.114 -263.242 98.6011C-263.015 98.1308 -255.881 90.7186 -246.411 81.0034C-227.099 61.1836 -198.042 31.7135 -198.042 31.7135L-121.459 31.4216H-118.216L-11.1975 31.0161L-11.0191 38.7688L-10.857 46.0836L-8.42474 38.6391L-6.70596 33.4003L20.1946 32.2163L21.4918 37.2442L24.7348 49.441L68.9204 38.1687Z" fill="url(#paint0_linear_1422_614)"/>
<path fill-rule="evenodd" clip-rule="evenodd" d="M56.97 60.3887C56.0855 61.3689 55.1376 62.29 54.1324 63.1459C52.5143 64.575 50.6523 65.7012 48.6356 66.4709C27.2643 74.1101 -10.7111 82.9657 -56.5344 87.2637C-58.8532 87.4908 -61.1881 87.6855 -63.5393 87.8801C-68.1605 88.2531 -72.8304 88.5937 -77.5652 88.8694C-84.8619 89.302 -92.2937 89.5993 -99.8607 89.7615H-102.423C-106.541 89.7615 -110.692 89.8588 -114.876 89.7615C-117.211 89.7615 -119.578 89.7615 -121.945 89.7615H-124.913L-187.843 71.7745L-190.518 66.3898L-197.993 51.4358C-197.993 51.4358 -176.914 49.8138 -146.738 47.5918L-124.378 45.9699C-116.27 45.386 -107.806 44.8021 -99.131 44.2183L-94.1693 43.8776C-20.0509 38.8659 66.926 33.9029 68.9366 38.0063C69.6339 39.4498 64.5099 52.2467 56.97 60.3887Z" fill="#147EA3"/>
<path fill-rule="evenodd" clip-rule="evenodd" d="M-6.57617 33.3842C2.24474 38.4121 20.373 33.3842 20.373 32.2002C20.373 31.0162 -6.57617 33.3842 -6.57617 33.3842Z" fill="#0C82DD"/>
<g style="mix-blend-mode:multiply" opacity="0.5">
<path fill-rule="evenodd" clip-rule="evenodd" d="M29.1776 72.8616L28.7236 72.5859C22.9269 69.306 16.8156 66.6163 10.4818 64.5574C9.78458 64.3141 9.0549 64.0871 8.32523 63.86C5.22818 62.9031 1.83927 61.9948 -1.7118 61.2487L-2.5874 60.9243L14.2437 62.9517L19.4811 63.5842L47.3221 66.9578H47.7275V68.6608L48.3599 96.6712L48.6031 108.025V110.312V110.603L24.832 115.388L24.9293 114.35L25.3995 109.776L26.6157 97.7904L29.1776 72.8616Z" fill="url(#paint1_linear_1422_614)" style="mix-blend-mode:multiply"/>
<path fill-rule="evenodd" clip-rule="evenodd" d="M29.1776 72.8616L28.7236 72.5859C22.9269 69.306 16.8156 66.6163 10.4818 64.5574C9.78458 64.3141 9.0549 64.0871 8.32523 63.86C5.22818 62.9031 1.83927 61.9948 -1.7118 61.2487L-2.5874 60.9243L14.2437 62.9517L19.4811 63.5842L47.3221 66.9578H47.7275V68.6608L48.3599 96.6712L48.6031 108.025V110.312V110.603L24.832 115.388L24.9293 114.35L25.3995 109.776L26.6157 97.7904L29.1776 72.8616Z" fill="url(#paint2_linear_1422_614)" style="mix-blend-mode:multiply"/>
</g>
<path style="mix-blend-mode:multiply" opacity="0.7" fill-rule="evenodd" clip-rule="evenodd" d="M-61.8854 87.8315L-69.7172 145.766L-0.722679 125.363L10.9683 77.8081L-61.8854 87.8315Z" fill="url(#paint3_linear_1422_614)"/>
<path style="mix-blend-mode:screen" fill-rule="evenodd" clip-rule="evenodd" d="M56.97 60.3888C55.5269 60.032 54.0027 59.7238 52.4298 59.4481C40.6416 57.4207 39.0039 61.07 20.8918 58.1344C15.1031 57.1774 8.90897 56.0908 2.423 54.8906L4.3688 55.4258C12.8492 57.7937 18.5893 59.8374 19.2055 60.9565C19.546 61.5728 17.6975 62.254 14.1788 62.919C12.5573 63.2272 10.5953 63.5353 8.32524 63.8273C-17.8781 67.2171 -84.3268 69.3418 -115.07 59.1886C-117.519 58.3939 -116.14 55.9448 -112.395 53.0415C-110.698 51.7469 -108.909 50.5761 -107.044 49.5382C-105.795 48.8408 -104.466 48.1434 -103.055 47.4622C-100.173 46.0644 -97.205 44.8509 -94.1693 43.8291C-93.3585 43.5588 -92.5316 43.2993 -91.6884 43.0506C-86.9959 41.6223 -82.1414 40.7939 -77.2409 40.5853C-75.5059 40.5853 -73.398 40.5853 -70.9982 40.7799C-87.813 37.4226 -104.044 34.1787 -118.151 31.4053H-121.394C-105.39 34.1787 -94.0882 37.8929 -96.6015 42.4343C-97.0516 42.9522 -97.6036 43.3718 -98.223 43.6669L-99.1473 44.2021C-100.769 45.078 -103.023 46.1647 -105.471 47.2676L-110.19 49.3598C-113.433 50.7222 -116.384 51.9873 -118.378 52.8145L-120.632 53.739L-128.918 55.9286C-128.918 55.9286 -172.439 53.3497 -190.535 66.3412L-187.859 71.726L-124.913 89.7292H-121.945C-119.578 89.7292 -117.211 89.7292 -114.876 89.7292C-110.692 89.7292 -106.541 89.7292 -102.423 89.7292L-106.914 80.8573L-99.8607 89.6805C-92.2937 89.5183 -84.8619 89.221 -77.5652 88.7885C-72.8304 88.5127 -68.1605 88.1721 -63.5393 87.7991C-61.1881 87.6045 -58.8532 87.4098 -56.5344 87.1828L-56.9398 87.0855C-86.1267 79.3652 -104.287 69.7634 -107.206 66.6007C-107.206 66.6007 -33.8498 69.6661 -10.7759 67.0386C-4.12782 66.2926 3.12025 65.3356 10.498 64.476C13.4654 64.1354 16.4489 63.7948 19.4324 63.5029C31.8855 62.2702 44.2088 61.6539 54.1486 63.065C56.3757 63.3677 58.5803 63.8175 60.7481 64.4112C63.3546 65.1671 65.8352 66.3039 68.1096 67.7847L68.2069 64.3301C64.6175 62.6073 60.8491 61.2856 56.97 60.3888ZM-104.92 76.2673C-113.222 80.2086 -172.747 69.2445 -173.671 64.2165C-175.13 56.253 -128.448 56.3178 -125.221 57.6316C-121.994 58.9453 -96.6177 72.3909 -104.92 76.2673ZM-61.7556 41.6882C-65.0959 41.2503 -68.2416 40.9259 -70.8684 40.7313L-65.0148 41.899C-42.0545 46.4566 -18.2997 51.1115 2.47165 54.8743C-18.6643 49.2558 -40.1098 44.8746 -61.7556 41.7531V41.6882Z" fill="url(#paint4_linear_1422_614)"/>
<path fill-rule="evenodd" clip-rule="evenodd" d="M1078.94 32L1090 141.893L1089.86 150.977L1089.8 189.875L1088.84 229.522L1088.29 261L554.368 234.399L384.302 210.907L-78.4093 196.885L-88 139.697L-73.054 131.65L-66.2734 127.992L29.3483 132.32L43.7241 132.95L91.1888 135.104L99.8631 133.58L-82.532 139.942L35.3457 137.769L36.1602 137.647V123.381L40.5177 124.296L58.1719 127.974L63.853 129.132L65.5227 129.498L65.991 128.868L69.5341 124.154L71.6111 121.41L88.5525 98.9548L113.313 105.905L95.8871 103.405L110.853 103.182L145.327 94.5865L156.262 92.9811L1078.94 32Z" fill="url(#paint5_linear_1422_614)"/>
<path fill-rule="evenodd" clip-rule="evenodd" d="M1150 8.32568L1128.05 75.4121L1125.9 82.0635L1106.08 83.5401L1104.36 83.6732H1104.2L1103.29 83.7397L1059.19 87.0521L1025.79 89.553L1022.94 89.7659L1010.45 90.7104H1010.3L1000.84 91.4155H1000.75L999.119 91.5485L987.788 92.3999L985.771 92.5462L981.321 92.8788L978.769 93.065L945.805 95.5527H945.231L920.952 97.3618L911.786 98.0669L895.659 99.2642L877.54 100.594L874.961 100.794L866.423 101.433L833.019 103.933L832.163 104L787 96.9361L802.901 71.0487L802.968 70.9556H803.623H803.703L820.298 69.8249L832.431 69.0134H832.872L835.45 68.8405L838.791 68.6143L840.996 68.468L845.472 68.162V68.0689L846.808 64.517L850.349 54.9257L850.576 54.327L851.792 50.988L852.153 50.0169L867.933 50.1499L868.093 49.1123L868.213 48.3407V48.0614L868.908 43.3788L869.055 42.421H869.149L900.095 40.2393H900.255H901.057L915.14 39.2416H915.862V39.5741V40.9044V42.4343V43.0861L915.701 48.2742V49.9637L918.28 49.6178L918.614 48.1811L919.95 42.2081L920.017 41.9287L920.124 41.4498L920.244 40.9044V40.7049L921.447 35.5833H922.342L925.776 35.6631L939.712 36.0622H940.915L958.94 36.5544L959.261 37.0865L959.528 37.5521L964.752 46.3719L965.407 47.4761L965.006 46.3586L961.853 37.3659L961.639 36.8071L958.593 28.0938L955.854 20.3116L974.934 19.1542L1004.09 17.1189L1007.35 16.9326L1014.55 16.4803L1020.93 16.1079H1021.23L1030.67 15.5491L1061.01 13.7134L1065.25 13.4473L1100.16 11.3454L1109.97 10.7468L1150 8.32568Z" fill="url(#paint6_linear_1422_614)" style="mix-blend-mode:multiply"/>
<path fill-rule="evenodd" clip-rule="evenodd" d="M1115.63 17.8506L1113.79 19.3671L1131.73 24.9676L1118.28 36.5544L1086.52 41.5696L982.47 52.5578C982.47 52.5578 970.071 53.1298 952.326 53.5023C942.064 53.7151 930.039 53.8615 917.585 53.755C912.16 53.755 906.669 53.6486 901.19 53.5156H899.467C894.884 53.3826 890.327 53.2229 885.891 52.9968C883.54 52.8904 881.228 52.7706 878.943 52.6243C877.54 52.5312 876.137 52.4514 874.761 52.3449L872.783 52.1986C865.261 51.6399 858.272 50.8683 852.193 49.9238L866.597 48.1678L867.733 48.0215H868.294L871.126 47.6889L880.132 46.5848L896.019 44.6559L897.356 44.4962L902.527 43.871L915.888 42.2481L920.044 41.7425L921.059 41.6095L924.574 41.1971L930.48 40.4655H930.627L939.111 39.4411L951.618 37.9113H951.698L959.247 36.9934L961.626 36.7008L968.547 35.8627L992.679 32.936L1006.48 31.2732L1011.69 30.6346L1029.82 28.4264L1038.95 27.3089L1052.41 25.6727H1052.62L1064.71 24.2094L1108.41 18.8882L1115.63 17.8506Z" fill="#147EA3"/>
<path fill-rule="evenodd" clip-rule="evenodd" d="M1014.55 31.4459L1006.87 32.2707L993.4 33.7207L972.823 35.9423C972.823 35.9423 971.487 36.1418 969.135 36.4212C967.291 36.634 964.819 36.9001 961.96 37.1396C961.212 37.2194 960.437 37.2726 959.635 37.3258C957.217 37.512 954.584 37.6717 951.818 37.7781H951.738C947.957 37.9244 943.962 37.9643 939.993 37.7781C934.316 37.6911 928.664 37.0089 923.131 35.7427C922.569 35.5964 922.008 35.4634 921.474 35.3038C921.474 35.3038 921.661 35.3038 922.035 35.1441L923.612 34.7317C925.375 34.2661 928.168 33.5611 931.696 32.7496C933.994 32.2175 936.613 31.6455 939.459 31.0601C945.151 29.9161 951.765 28.7454 958.633 27.8541C962.08 27.4285 965.608 27.056 969.109 26.8032C971.527 26.6436 973.946 26.5239 976.324 26.4839C980.119 26.4041 983.633 26.484 986.88 26.6436L988.831 26.7367C992.011 26.9496 994.91 27.2289 997.502 27.5748C1000.64 27.9872 1003.35 28.4661 1005.64 28.9051L1006.01 28.9982H1006.33C1008.59 29.4904 1010.34 29.9826 1011.68 30.3285C1012.66 30.6504 1013.61 31.0234 1014.55 31.4459Z" fill="#147EA3"/>
<path fill-rule="evenodd" clip-rule="evenodd" d="M1150 8.32572L1141.01 15.6157L1113.79 19.3671L1108.26 20.1121L1053.1 27.6814L1045.28 28.7589C1045.28 28.7589 1043.09 28.7589 1039.28 28.6126C1036.8 28.6126 1033.62 28.4264 1029.93 28.28C1025.46 28.0805 1020.23 27.8144 1014.57 27.4552H1013.76C1011.75 27.3222 1009.66 27.1892 1007.54 27.0163C1005.08 26.8433 1002.61 26.6438 1000.08 26.4309C997.035 26.1649 993.935 25.8722 990.821 25.5529L989.579 25.4199C983.406 24.7681 977.233 23.9832 971.34 23.0653C965.888 22.2006 960.65 21.2295 955.947 20.0988C964.272 15.7886 975.495 12.6891 988.323 10.4675C994.376 9.38995 1000.78 8.51196 1007.42 7.80691C1011 7.43443 1014.62 7.08855 1018.31 6.79589C1020.34 6.62295 1022.38 6.47662 1024.44 6.33029C1035.21 5.61193 1046.29 5.21285 1057.19 5.06652C1061.17 5.06652 1065.12 5.04434 1069.03 5H1074.6C1085.73 5.07982 1096.39 5.35918 1105.99 5.75826L1109.38 5.89129C1133.34 6.83579 1150 8.32572 1150 8.32572Z" fill="#147EA3"/>
<path style="mix-blend-mode:multiply" opacity="0.7" fill-rule="evenodd" clip-rule="evenodd" d="M866.343 101.473L832.952 103.974L838.163 82.7023L839.272 78.166L842.519 78.472L845.352 78.7247L865.942 80.6404L865.982 83.1413L866.343 101.473Z" fill="url(#paint7_linear_1422_614)"/>
<path fill-rule="evenodd" clip-rule="evenodd" d="M1091.17 47.5957L1052.42 60.8986L1023.25 70.8624L1021.45 71.0753C1015.67 71.6872 996.741 73.7359 972.77 75.9441L965.434 76.6226C948.799 78.1258 930.266 79.6689 912.294 80.9061C904.718 81.4116 897.235 81.8772 890.02 82.2364C885.771 82.4492 881.602 82.6621 877.58 82.8084H876.177C872.717 82.9414 869.376 83.0346 866.156 83.1144C860.571 83.2474 855.373 83.2873 850.696 83.2075H850.189C845.712 83.1277 841.744 82.9547 838.337 82.6754L836.506 82.5024C805.079 79.19 803.102 71.4078 803.102 71.0088L803.903 70.8491C808.633 69.878 813.938 68.9601 819.737 68.0555C822.017 67.7008 824.378 67.3505 826.819 67.0046L833.593 66.0601C837.896 65.4881 842.385 64.9426 846.955 64.3839L854.504 63.5325C856.99 63.2399 859.528 62.9738 862.094 62.7078L865.595 62.3353C871.768 61.6968 878.106 61.0759 884.609 60.4729L885.504 60.4064C886.185 60.3265 886.84 60.2733 887.561 60.2068L893.467 59.6747L899.467 59.1559L905.987 58.6105L908.54 58.3976C912.08 58.105 915.648 57.8389 919.229 57.5595C930.039 56.7082 934.127 57.6527 944.924 56.9077C1004.36 52.837 1067.41 48.5934 1085.37 47.8485L1091.17 47.5957Z" fill="#147EA3"/>
<path style="mix-blend-mode:screen" fill-rule="evenodd" clip-rule="evenodd" d="M807.207 54.267C808.465 53.9556 809.794 53.6868 811.164 53.4462C821.439 51.6773 822.866 54.8613 838.653 52.3C843.698 51.4651 849.097 50.5169 854.75 49.4698L853.054 49.9367C845.662 52.0028 840.659 53.7858 840.122 54.7622C839.826 55.3 841.437 55.8943 844.503 56.4745C845.917 56.7434 847.627 57.0123 849.605 57.267C872.444 60.2246 930.36 62.0783 957.155 53.2198C959.289 52.5264 958.088 50.3896 954.824 47.8565C953.344 46.7269 951.786 45.7054 950.16 44.7999C949.071 44.1914 947.913 43.5829 946.683 42.9886C944.171 41.769 941.584 40.7103 938.938 39.8187C938.232 39.5829 937.511 39.3565 936.776 39.1395C932.686 37.8933 928.455 37.1705 924.184 36.9885C922.672 36.9885 920.834 36.9885 918.743 37.1583C933.398 34.229 947.545 31.3988 959.841 28.979H962.667C948.718 31.3988 938.868 34.6394 941.058 38.6017C941.451 39.0536 941.932 39.4197 942.472 39.6772L943.277 40.1442C944.69 40.9083 946.655 41.8565 948.789 42.8187L952.901 44.6442C955.728 45.8329 958.3 46.9367 960.038 47.6584L962.003 48.465L969.225 50.3754C969.225 50.3754 1007.16 48.1254 1022.93 59.4604L1020.6 64.1585L965.734 79.8662H963.148C961.084 79.8662 959.021 79.8662 956.986 79.8662C953.34 79.8662 949.722 79.8662 946.132 79.8662L950.047 72.1256L943.899 79.8238C937.304 79.6823 930.826 79.4228 924.466 79.0455C920.34 78.8049 916.269 78.5077 912.242 78.1823C910.192 78.0124 908.157 77.8426 906.136 77.6445L906.49 77.5596C931.928 70.8237 947.757 62.4463 950.301 59.6868C950.301 59.6868 886.365 62.3614 866.254 60.0689C860.459 59.4179 854.142 58.583 847.712 57.833C845.125 57.5358 842.525 57.2387 839.925 56.984C829.071 55.9085 818.33 55.3707 809.666 56.6019C807.725 56.866 805.804 57.2584 803.914 57.7764C801.643 58.436 799.48 59.4278 797.498 60.7198L797.413 57.7057C800.542 56.2026 803.826 55.0494 807.207 54.267ZM948.308 68.1208C955.544 71.5596 1007.43 61.9934 1008.23 57.6066C1009.5 50.6584 968.815 50.715 966.002 51.8613C963.19 53.0075 941.072 64.7387 948.308 68.1208ZM910.687 37.9508C913.598 37.5687 916.34 37.2857 918.63 37.1159L913.528 38.1347C893.516 42.1112 872.811 46.1725 854.707 49.4556C873.129 44.5534 891.821 40.7309 910.687 38.0074V37.9508Z" fill="url(#paint8_linear_1422_614)"/>
<path fill-rule="evenodd" clip-rule="evenodd" d="M1080.61 32.0167L1079.9 35.2791L1078.35 42.3195L1078.07 43.5394L1077.24 47.3889L1075.77 54.1126L1066.35 55.5629L1027.16 61.605L1025.32 61.8803L1025.13 61.5878L1024.66 60.7735L1024.45 60.4209L1024.32 60.4271L1013.18 61.5182L991.541 63.6329L990.481 61.4071L990.384 61.2015L988.015 61.3827L983.087 61.7487L961.17 63.4013L959.847 61.2352L954.682 52.6944L954.297 52.0498L954.097 51.745L970.772 44.6756L973.142 43.6652L978.46 41.4088L989.191 36.8648L993.63 34.973L992.581 33.3162L989.644 28.6513L988.317 26.568L987.357 25.0335L987.429 25.013L1016.5 16.1964L1017.87 15.7825L1024 15.4806L1073.79 13.0743L1073.39 14.5256L1070.55 24.6372L1069.56 28.1243L1076.65 30.6363L1080.61 32.0167Z" fill="url(#paint9_linear_1422_614)"/>
<path fill-rule="evenodd" clip-rule="evenodd" d="M1024.27 16.0251C1024.27 16.0251 1018.75 17.8815 1011.96 19.9555C1002.07 22.9722 989.482 26.405 987.44 25.0368C987.05 24.7711 987.045 24.3444 987.499 23.6889C992.069 17.4434 1012.49 1.72331 1022.01 12.5744C1022.79 13.467 1023.45 14.4505 1023.99 15.5033C1024.11 15.6509 1024.19 15.82 1024.27 16.0251Z" fill="url(#paint10_linear_1422_614)"/>
<path style="mix-blend-mode:multiply" opacity="0.36" fill-rule="evenodd" clip-rule="evenodd" d="M987.473 47.5462L990.593 60.4759L983.087 61.7486L972.198 45.01L1000.16 28.9667L1002.9 44.9834L987.473 47.5462Z" fill="url(#paint11_linear_1422_614)"/>
<path fill-rule="evenodd" clip-rule="evenodd" d="M998.699 33.5583C997.735 34.6937 996.691 35.7569 995.573 36.7392C991.642 40.1835 987.187 42.9733 982.377 45.0023C981.606 45.3361 980.861 45.6472 980.104 45.9459C978.097 46.7353 976.084 47.4177 974.108 48.0543C967.586 50.0252 960.872 51.2899 954.082 51.8268C953.518 49.2531 953.865 46.5623 955.064 44.2168C955.543 43.2041 956.127 42.2447 956.806 41.3547C956.904 41.2132 957.013 41.0793 957.131 40.9542C958.15 39.6695 959.293 38.4891 960.543 37.4304C964.168 34.4325 968.261 32.0568 972.658 30.3996C977.665 28.4144 982.929 27.1555 988.29 26.6611C993.327 26.2287 997.413 26.7618 999.246 28.3224C999.546 28.5641 999.797 28.8603 999.987 29.1957C1000.64 30.1837 1000.3 31.6735 998.699 33.5583Z" fill="url(#paint12_linear_1422_614)"/>
<path fill-rule="evenodd" clip-rule="evenodd" d="M1044.09 94.1506L1006.07 191.769L1002.34 201.45L972.895 202.007L970.333 202.063L970.096 202.049L968.746 202.073L903.218 203.353L853.576 204.31L849.347 204.391L830.78 204.762L830.562 204.75L816.504 205.016L816.366 205.009L813.942 205.072L797.104 205.401L794.106 205.451L787.493 205.578L783.701 205.644L734.713 206.617L733.863 206.57L697.784 207.253L684.161 207.543L660.194 207.99L633.271 208.47L629.438 208.554L616.75 208.797L567.108 209.754L565.837 209.782L499.582 195.596L525.248 158.538L525.354 158.406L526.323 158.46L526.442 158.466L551.095 158.156L569.117 157.953L569.769 157.989L573.6 157.945L578.562 157.885L581.837 157.849L588.486 157.764L588.494 157.626L590.764 152.472L596.795 138.549L597.181 137.68L599.255 132.832L599.869 131.422L623.212 132.918L623.534 131.394L623.776 130.26L623.799 129.846L625.213 122.963L625.51 121.556L625.648 121.564L671.625 120.877L671.862 120.891L673.049 120.957L693.973 120.637L695.041 120.697L695.014 121.19L694.904 123.161L694.778 125.428L694.724 126.394L694.059 134.07L693.92 136.574L697.765 136.274L698.378 134.172L700.847 125.43L700.969 125.021L701.167 124.32L701.39 123.522L701.406 123.226L703.608 115.735L704.933 115.808L710.008 116.209L730.6 117.948L732.38 118.047L759.014 120.26L759.445 121.075L759.802 121.787L766.807 135.289L767.685 136.979L767.184 135.29L763.258 121.702L762.988 120.857L759.198 107.692L755.786 95.9333L784.119 95.7886L827.434 95.1721L832.274 95.1644L842.97 95.0869L852.433 95.0595L852.887 95.0848L866.894 95.0333L911.953 94.8103L918.243 94.7647L970.086 94.5236L984.65 94.4437L1044.09 94.1506Z" fill="url(#paint13_linear_1422_614)"/>
<path fill-rule="evenodd" clip-rule="evenodd" d="M992.449 105.438L989.595 107.534L1015.69 117.312L994.822 133.376L947.406 138.195L792.518 145.915C792.518 145.915 774.12 145.742 747.829 144.834C732.625 144.304 714.816 143.531 696.396 142.348C688.367 141.902 680.249 141.292 672.152 140.644L669.601 140.502C662.83 139.928 656.1 139.316 649.554 138.616C646.082 138.265 642.671 137.897 639.302 137.492C637.233 137.238 635.163 137.005 633.135 136.734L630.221 136.354C619.134 134.907 608.856 133.188 599.936 131.288L621.398 129.871L623.091 129.747L623.921 129.794L628.141 129.534L641.56 128.639L665.23 127.088L667.221 126.961L674.925 126.46L694.833 125.155L701.024 124.748L702.538 124.634L707.773 124.312L716.573 123.714L716.791 123.726L729.432 122.906L748.067 121.669L748.185 121.675L759.433 120.936L762.977 120.698L773.289 120.026L809.243 117.675L829.807 116.347L837.571 115.829L864.587 114.049L878.185 113.144L898.232 111.827L898.549 111.844L916.565 110.671L981.665 106.381L992.449 105.438Z" fill="#147EA3"/>
<path fill-rule="evenodd" clip-rule="evenodd" d="M841.736 117.267L830.298 117.857L810.246 118.897L779.611 120.496C779.611 120.496 777.617 120.682 774.113 120.902C771.367 121.066 767.687 121.257 763.436 121.376C762.322 121.433 761.17 121.448 759.979 121.461C756.385 121.538 752.476 121.558 748.374 121.488L748.256 121.481C742.647 121.387 736.732 121.117 730.874 120.514C722.48 119.918 714.171 118.442 706.087 116.11C705.268 115.847 704.449 115.603 703.671 115.323C703.671 115.323 703.948 115.338 704.515 115.133L706.882 114.651C709.531 114.106 713.722 113.291 719.009 112.379C722.454 111.779 726.377 111.147 730.637 110.514C739.155 109.287 749.04 108.097 759.277 107.341C764.414 106.994 769.665 106.732 774.867 106.646C778.459 106.608 782.048 106.63 785.571 106.766C791.194 106.961 796.388 107.368 801.18 107.872L804.059 108.171C808.748 108.748 813.016 109.4 816.823 110.126C821.436 110.996 825.411 111.929 828.756 112.768L829.302 112.937L829.777 112.963C833.078 113.878 835.628 114.752 837.577 115.375C838.996 115.932 840.384 116.564 841.736 117.267Z" fill="#147EA3"/>
<path fill-rule="evenodd" clip-rule="evenodd" d="M1044.09 94.1508L1030.18 104.215L989.595 107.534L981.347 108.183L899.095 114.861L887.438 115.814C887.438 115.814 884.195 115.634 878.572 115.104C874.894 114.899 870.203 114.361 864.757 113.841C858.149 113.177 850.44 112.352 842.085 111.354L840.899 111.288C837.924 110.924 834.85 110.556 831.72 110.124C828.096 109.666 824.454 109.167 820.734 108.643C816.248 107.998 811.684 107.309 807.103 106.58L805.275 106.28C796.193 104.806 787.122 103.135 778.477 101.289C770.481 99.5591 762.809 97.6887 755.942 95.6257C768.617 89.9231 785.482 86.2532 804.649 84.0166C813.695 82.9179 823.24 82.1435 833.125 81.6452C838.456 81.3879 843.843 81.1734 849.325 81.0432C852.345 80.9541 855.382 80.9055 858.439 80.858C874.437 80.6799 890.862 81.0002 907.01 81.6808C912.903 82.0086 918.745 82.3005 924.536 82.5567L932.781 83.0154C949.247 84.0499 965.004 85.3416 979.169 86.7227L984.18 87.1993C1019.56 90.5711 1044.09 94.1508 1044.09 94.1508Z" fill="#147EA3"/>
<path style="mix-blend-mode:multiply" opacity="0.2" fill-rule="evenodd" clip-rule="evenodd" d="M616.628 208.85L567.006 209.808L576.471 178.712L578.487 172.08L583.267 172.801L587.438 173.409L617.752 177.943L617.605 181.653L616.628 208.85Z" fill="url(#paint14_linear_1422_614)"/>
<path style="mix-blend-mode:multiply" opacity="0.47" fill-rule="evenodd" clip-rule="evenodd" d="M970.318 201.983L970.099 201.99L970.079 201.989L968.749 202.014L903.221 203.294L853.56 204.249L853.563 204.19L851.331 177.269L851.244 176.335L895.253 163.97L895.292 163.972L953.79 147.508L965.774 187.036L970.318 201.983Z" fill="url(#paint15_linear_1422_614)"/>
<path fill-rule="evenodd" clip-rule="evenodd" d="M953.79 147.508L895.348 164.034L851.36 176.4L848.673 176.567C840.08 176.999 811.891 178.477 776.234 179.776L765.322 180.178C740.579 181.037 713.025 181.798 686.327 182.152C675.073 182.278 663.961 182.352 653.253 182.29C646.948 182.256 640.761 182.228 634.797 182.114L632.72 181.999C627.588 181.911 622.637 181.774 617.864 181.627C609.588 181.365 601.892 180.996 594.978 180.493L594.226 180.451C587.609 179.964 581.75 179.381 576.731 178.687L574.036 178.28C527.8 170.784 525.515 159.087 525.548 158.496L526.747 158.325C533.827 157.275 541.753 156.352 550.41 155.488C553.814 155.15 557.336 154.825 560.977 154.514L571.08 153.671C577.495 153.178 584.184 152.739 590.993 152.287L602.235 151.647C605.938 151.418 609.717 151.232 613.535 151.049L618.747 150.785C627.935 150.347 637.366 149.949 647.039 149.59L648.369 149.565C649.384 149.503 650.358 149.478 651.431 149.439L660.215 149.137L669.136 148.861L678.831 148.59L682.626 148.484C687.89 148.342 693.192 148.242 698.514 148.122C714.582 147.75 720.555 149.487 736.594 149.271C824.885 148.131 918.549 147.032 945.187 147.406L953.79 147.508Z" fill="#147EA3"/>
<path style="mix-blend-mode:screen" fill-rule="evenodd" clip-rule="evenodd" d="M720.879 147.3C722.136 146.988 723.464 146.719 724.834 146.478C735.104 144.707 736.531 147.895 752.311 145.331C757.354 144.495 762.75 143.546 768.401 142.498L766.706 142.965C759.317 145.033 754.317 146.818 753.78 147.796C753.483 148.334 755.094 148.929 758.159 149.51C759.572 149.779 761.281 150.048 763.259 150.303C786.088 153.263 843.979 155.119 870.763 146.251C872.896 145.557 871.696 143.418 868.432 140.883C866.954 139.752 865.396 138.729 863.77 137.823C862.683 137.214 861.524 136.605 860.295 136.01C857.784 134.789 855.199 133.729 852.554 132.837C851.848 132.601 851.127 132.374 850.392 132.157C846.304 130.909 842.075 130.186 837.806 130.004C836.294 130.004 834.458 130.004 832.367 130.174C847.016 127.241 861.157 124.408 873.447 121.986L876.273 121.986C862.33 124.408 852.483 127.652 854.673 131.618C855.065 132.071 855.546 132.437 856.086 132.695L856.891 133.162C858.303 133.927 860.267 134.877 862.4 135.84L866.511 137.667C869.336 138.857 871.907 139.962 873.645 140.684L875.609 141.492L882.827 143.404C882.827 143.404 920.744 141.152 936.509 152.499L934.178 157.201L879.338 172.925L876.753 172.925C874.69 172.925 872.628 172.925 870.594 172.925C866.949 172.925 863.333 172.925 859.744 172.925L863.657 165.177L857.512 172.883C850.92 172.741 844.445 172.481 838.088 172.104C833.963 171.863 829.895 171.565 825.868 171.24C823.82 171.07 821.786 170.9 819.766 170.701L820.119 170.616C845.547 163.873 861.369 155.487 863.912 152.725C863.912 152.725 800.002 155.402 779.9 153.108C774.108 152.456 767.793 151.62 761.366 150.869C758.781 150.572 756.181 150.275 753.582 150.02C742.733 148.943 731.996 148.405 723.337 149.637C721.396 149.902 719.476 150.294 717.587 150.813C715.316 151.473 713.155 152.466 711.173 153.759L711.089 150.742C714.216 149.237 717.499 148.083 720.879 147.3ZM861.92 161.168C869.153 164.61 921.012 155.034 921.817 150.643C923.089 143.688 882.418 143.744 879.607 144.892C876.795 146.039 854.687 157.782 861.92 161.168ZM824.315 130.967C827.225 130.584 829.965 130.301 832.254 130.131L827.154 131.151C807.151 135.132 786.455 139.197 768.359 142.483C786.773 137.576 805.456 133.75 824.315 131.023L824.315 130.967Z" fill="url(#paint16_linear_1422_614)"/>
<path style="mix-blend-mode:screen" fill-rule="evenodd" clip-rule="evenodd" d="M796.988 111.587C798.246 111.275 799.574 111.006 800.944 110.765C811.214 108.995 812.641 112.182 828.42 109.618C833.464 108.782 838.86 107.833 844.511 106.785L842.815 107.252C835.427 109.32 830.426 111.105 829.889 112.083C829.593 112.621 831.203 113.216 834.269 113.797C835.681 114.066 837.391 114.335 839.369 114.59C862.197 117.551 920.089 119.406 946.873 110.539C949.006 109.844 947.805 107.705 944.542 105.17C943.063 104.039 941.505 103.017 939.88 102.11C938.792 101.501 937.634 100.892 936.405 100.297C933.894 99.0761 931.308 98.0162 928.664 97.1238C927.957 96.8877 927.237 96.6611 926.502 96.4439C922.414 95.1964 918.185 94.4729 913.915 94.2907C912.404 94.2907 910.567 94.2907 908.476 94.4607C923.126 91.5284 937.267 88.6953 949.557 86.2729L952.382 86.2729C938.439 88.6953 928.593 91.9392 930.783 95.9056C931.175 96.3579 931.656 96.7244 932.195 96.9821L933.001 97.4496C934.413 98.2145 936.377 99.1636 938.51 100.127L942.621 101.954C945.446 103.144 948.017 104.249 949.755 104.972L951.718 105.779L958.937 107.691C958.937 107.691 996.853 105.439 1012.62 116.786L1010.29 121.489L955.448 137.212L952.863 137.212C950.8 137.212 948.738 137.212 946.703 137.212C943.059 137.212 939.442 137.212 935.854 137.212L939.767 129.464L933.622 137.17C927.03 137.028 920.555 136.769 914.198 136.391C910.073 136.15 906.004 135.853 901.978 135.527C899.93 135.357 897.896 135.187 895.875 134.988L896.229 134.903C921.657 128.161 937.479 119.775 940.021 117.012C940.021 117.012 876.112 119.69 856.01 117.395C850.218 116.743 843.903 115.907 837.476 115.157C834.89 114.859 832.291 114.562 829.692 114.307C818.842 113.23 808.106 112.692 799.446 113.924C797.506 114.189 795.585 114.581 793.697 115.1C791.426 115.76 789.265 116.753 787.283 118.046L787.198 115.029C790.326 113.524 793.609 112.37 796.988 111.587ZM938.03 125.455C945.263 128.897 997.122 119.321 997.927 114.93C999.198 107.975 958.528 108.031 955.716 109.179C952.905 110.326 930.797 122.069 938.03 125.455ZM900.424 95.2539C903.334 94.8715 906.075 94.5881 908.363 94.4182L903.264 95.4381C883.26 99.4186 862.565 103.484 844.468 106.771C862.882 101.863 881.566 98.0369 900.424 95.3106L900.424 95.2539Z" fill="url(#paint17_linear_1422_614)"/>
<path style="mix-blend-mode:screen" fill-rule="evenodd" clip-rule="evenodd" d="M533.532 170.133C534.789 169.821 536.117 169.552 537.487 169.311C547.757 167.54 549.184 170.728 564.964 168.164C570.007 167.328 575.403 166.379 581.054 165.331L579.359 165.798C571.971 167.866 566.97 169.651 566.433 170.629C566.136 171.167 567.747 171.762 570.812 172.343C572.225 172.612 573.934 172.881 575.912 173.136C598.741 176.096 656.632 177.952 683.416 169.085C685.55 168.39 684.349 166.251 681.086 163.716C679.607 162.585 678.049 161.562 676.424 160.656C675.336 160.047 674.178 159.438 672.949 158.843C670.438 157.622 667.852 156.562 665.207 155.67C664.501 155.434 663.78 155.207 663.046 154.99C658.957 153.742 654.728 153.019 650.459 152.837C648.947 152.837 647.111 152.837 645.02 153.007C659.669 150.074 673.81 147.241 686.1 144.819L688.926 144.819C674.983 147.241 665.136 150.485 667.326 154.451C667.718 154.904 668.199 155.27 668.739 155.528L669.544 155.995C670.957 156.76 672.92 157.71 675.053 158.673L679.164 160.5C681.99 161.69 684.561 162.795 686.298 163.517L688.262 164.325L695.481 166.237C695.481 166.237 733.397 163.985 749.162 175.332L746.831 180.035L691.991 195.758L689.406 195.758C687.344 195.758 685.281 195.758 683.247 195.758C679.602 195.758 675.986 195.758 672.398 195.758L676.311 188.01L670.166 195.716C663.573 195.574 657.098 195.314 650.741 194.937C646.616 194.696 642.548 194.398 638.522 194.073C636.473 193.903 634.439 193.733 632.419 193.534L632.772 193.449C658.2 186.706 674.022 178.32 676.565 175.558C676.565 175.558 612.656 178.235 592.553 175.941C586.761 175.289 580.447 174.453 574.019 173.702C571.434 173.405 568.834 173.108 566.235 172.853C555.386 171.776 544.65 171.238 535.99 172.47C534.05 172.735 532.129 173.127 530.24 173.646C527.969 174.306 525.808 175.299 523.827 176.592L523.742 173.575C526.869 172.07 530.152 170.916 533.532 170.133ZM674.573 184.001C681.806 187.443 733.665 177.867 734.47 173.476C735.742 166.521 695.071 166.577 692.26 167.725C689.449 168.872 667.34 180.615 674.573 184.001ZM636.968 153.8C639.878 153.417 642.618 153.134 644.907 152.964L639.807 153.984C619.804 157.965 599.108 162.03 581.012 165.316C599.426 160.409 618.109 156.583 636.968 153.856L636.968 153.8Z" fill="url(#paint18_linear_1422_614)"/>
<path style="mix-blend-mode:screen" fill-rule="evenodd" clip-rule="evenodd" d="M609.641 134.42C610.899 134.108 612.227 133.839 613.597 133.598C623.867 131.828 625.294 135.015 641.073 132.451C646.117 131.615 651.513 130.666 657.164 129.618L655.469 130.085C648.08 132.153 643.079 133.938 642.543 134.916C642.246 135.454 643.856 136.049 646.922 136.63C648.335 136.899 650.044 137.168 652.022 137.423C674.85 140.384 732.742 142.239 759.526 133.372C761.659 132.678 760.458 130.538 757.195 128.003C755.716 126.872 754.158 125.85 752.533 124.943C751.446 124.334 750.287 123.725 749.058 123.13C746.547 121.909 743.961 120.849 741.317 119.957C740.61 119.721 739.89 119.494 739.155 119.277C735.067 118.029 730.838 117.306 726.568 117.124C725.057 117.124 723.22 117.124 721.13 117.294C735.779 114.361 749.92 111.528 762.21 109.106L765.035 109.106C751.092 111.528 741.246 114.772 743.436 118.739C743.828 119.191 744.309 119.557 744.848 119.815L745.654 120.283C747.066 121.048 749.03 121.997 751.163 122.96L755.274 124.787C758.099 125.977 760.67 127.082 762.408 127.805L764.372 128.612L771.59 130.524C771.59 130.524 809.506 128.272 825.272 139.619L822.941 144.322L768.101 160.045L765.516 160.045C763.453 160.045 761.391 160.045 759.357 160.045C755.712 160.045 752.095 160.045 748.507 160.045L752.42 152.297L746.275 160.003C739.683 159.861 733.208 159.602 726.851 159.224C722.726 158.983 718.657 158.686 714.631 158.36C712.583 158.19 710.549 158.02 708.529 157.821L708.882 157.736C734.31 150.994 750.132 142.608 752.675 139.845C752.675 139.845 688.765 142.523 668.663 140.228C662.871 139.576 656.556 138.74 650.129 137.99C647.543 137.692 644.944 137.395 642.345 137.14C631.495 136.063 620.759 135.525 612.099 136.757C610.159 137.022 608.238 137.414 606.35 137.933C604.079 138.593 601.918 139.586 599.936 140.879L599.852 137.862C602.979 136.357 606.262 135.203 609.641 134.42ZM750.683 148.288C757.916 151.73 809.775 142.154 810.58 137.763C811.851 130.808 771.181 130.864 768.369 132.012C765.558 133.159 743.45 144.902 750.683 148.288ZM713.077 118.087C715.987 117.704 718.728 117.421 721.017 117.251L715.917 118.271C695.913 122.252 675.218 126.317 657.121 129.604C675.535 124.696 694.219 120.87 713.077 118.144L713.077 118.087Z" fill="url(#paint19_linear_1422_614)"/>
<path fill-rule="evenodd" clip-rule="evenodd" d="M968.594 101.4L967.43 104.532L964.9 111.29L964.452 112.459L963.085 116.156L960.672 122.61L951.15 122.713L911.51 123.145L909.648 123.157L909.504 122.84L909.152 121.967L908.995 121.587L908.866 121.575L897.693 121.078L875.978 120.107L875.245 117.751L875.178 117.533L872.808 117.377L867.88 117.041L845.959 115.573L844.958 113.239L841.059 104.044L840.769 103.35L840.616 103.02L858.118 98.3781L860.607 97.7127L866.188 96.2305L877.452 93.2486L882.113 92.0032L881.31 90.2127L879.065 85.1739L878.049 82.9215L877.316 81.265L877.39 81.2548L907.402 76.6377L908.822 76.4225L914.93 76.992L964.541 81.6644L963.934 83.045L959.69 92.6625L958.215 95.9775L964.877 99.472L968.594 101.4Z" fill="url(#paint20_linear_1422_614)"/>
<path fill-rule="evenodd" clip-rule="evenodd" d="M915.122 77.5705C915.122 77.5705 909.392 78.6271 902.383 79.7206C892.162 81.3072 879.224 82.9255 877.398 81.2803C877.05 80.9617 877.105 80.5382 877.647 79.953C883.056 74.412 905.489 61.7283 913.377 73.8311C914.016 74.8252 914.532 75.8938 914.915 77.0132C915.016 77.1769 915.066 77.3551 915.122 77.5705Z" fill="url(#paint21_linear_1422_614)"/>
<path style="mix-blend-mode:multiply" opacity="0.36" fill-rule="evenodd" clip-rule="evenodd" d="M903.359 101.338L903.06 120.038L916.215 121.414L915.18 107.646L939.258 92.7881L939.755 88.9277L889.627 94.6696L892.576 99.0213L903.359 101.338Z" fill="url(#paint22_linear_1422_614)"/>
<path fill-rule="evenodd" clip-rule="evenodd" d="M968.594 101.401C968.594 101.401 964.625 102.282 958.825 103.458C949.593 105.339 935.742 107.919 926.131 108.812C920.488 109.343 916.3 109.279 915.402 108.122C915.286 107.982 915.217 107.809 915.207 107.627C915.251 107.17 915.455 106.742 915.782 106.421C918.339 103.611 921.266 101.164 924.48 99.1476C928.01 96.8017 931.778 94.8389 935.719 93.2922C936.924 92.8195 938.118 92.405 939.351 92.0341C946.261 89.9336 953.55 89.5196 959.632 92.6519C962.955 94.3736 965.759 96.9564 967.753 100.133C968.072 100.543 968.34 100.967 968.594 101.401Z" fill="url(#paint23_linear_1422_614)"/>
<path style="mix-blend-mode:multiply" opacity="0.36" fill-rule="evenodd" clip-rule="evenodd" d="M874.236 103.59L875.488 116.844L867.88 117.042L859.481 98.9119L889.429 86.9777L889.864 103.237L874.236 103.59Z" fill="url(#paint24_linear_1422_614)"/>
<path fill-rule="evenodd" clip-rule="evenodd" d="M887.329 91.32C886.214 92.3086 885.03 93.214 883.784 94.029C879.406 96.885 874.602 99.0181 869.554 100.347C868.745 100.568 867.963 100.771 867.171 100.96C865.074 101.458 862.985 101.848 860.939 102.199C854.206 103.228 847.383 103.53 840.589 103.099C840.396 100.469 841.121 97.8519 842.64 95.6977C843.258 94.762 843.972 93.8942 844.77 93.1086C844.887 92.9822 845.014 92.8649 845.148 92.7577C846.339 91.629 847.637 90.6214 849.025 89.7495C853.037 87.2925 857.425 85.5185 862.01 84.4996C867.247 83.242 872.634 82.7406 878.008 83.0103C883.054 83.2958 887.021 84.4031 888.613 86.2093C888.876 86.4912 889.082 86.8205 889.223 87.1797C889.729 88.2513 889.185 89.6799 887.329 91.32Z" fill="url(#paint25_linear_1422_614)"/>
<path fill-rule="evenodd" clip-rule="evenodd" d="M963.934 83.0449C960.88 86.5213 951.005 89.4627 939.403 91.6939C937.302 92.0825 935.144 92.4603 932.957 92.7966C921.379 94.6753 909.681 95.6997 897.957 95.8614C894.025 95.8455 891.124 95.5774 889.822 95.0315L889.625 94.9944C889.529 94.9569 889.437 94.9073 889.353 94.8468C889.256 94.7939 889.177 94.7138 889.125 94.6162C889.073 94.5186 889.051 94.4079 889.061 94.2976C889.145 93.7658 889.318 93.2522 889.574 92.7788C890.756 90.5575 892.266 88.5287 894.053 86.7615C897.975 82.7693 902.472 79.3924 907.394 76.7446C909.335 75.6872 911.336 74.743 913.385 73.9168C926.396 68.6951 940.862 68.4822 954.004 73.3187C964.26 76.7775 966.516 80.0947 963.934 83.0449Z" fill="url(#paint26_linear_1422_614)"/>
<path fill-rule="evenodd" clip-rule="evenodd" d="M925.479 115.597C924.998 108.901 933.67 111.724 936.323 113.633C938.976 115.542 925.479 115.597 925.479 115.597Z" fill="url(#paint27_linear_1422_614)"/>
<path fill-rule="evenodd" clip-rule="evenodd" d="M908.889 121.965C907.818 107.298 926.771 113.513 932.564 117.676C938.356 121.839 908.889 121.965 908.889 121.965Z" fill="url(#paint28_linear_1422_614)"/>
<path fill-rule="evenodd" clip-rule="evenodd" d="M55.8013 26.4399C52.5078 26.3135 50.3168 35.8376 49.9958 37.3266C50.3726 35.2195 53.5824 16.1573 48.4886 13.3478C44.8881 11.3671 43.8554 21.2003 43.5345 27.8728C43.5345 23.8974 43.2274 19.2898 41.3853 19.0651C39.9898 18.8825 38.985 21.6779 38.3709 24.7823C38.9012 19.6832 39.2362 13.9378 38.2035 13.5445C37.1708 13.1512 36.2218 18.9948 35.4124 24.7823C36.1939 16.4804 36.6684 6.38035 34.6727 4.8211C31.2397 2.1802 29.1882 32.9157 29.1882 33.281C29.1882 32.3398 27.3601 2.69995 23.2293 1.95544C20.6894 1.49188 21.5406 14.4154 22.5873 24.5576C21.1918 14.4014 18.7077 1.40759 15.6096 1.50593C10.6693 1.68854 16.74 35.5426 16.7818 36.7366C16.727 36.6161 16.6894 36.4884 16.6702 36.3573C15.8189 32.8455 10.9484 9.246 5.86865 7.9115C3.14734 7.20914 3.74742 14.584 5.01737 22.0712C5.02263 22.1648 5.02263 22.2586 5.01737 22.3522C5.53372 25.3302 6.14776 28.2942 6.69203 30.7805C7.41771 34.1238 8.01779 36.554 8.08757 36.8349C7.94802 36.5399 5.84074 32.6208 3.11942 28.0413C-1.06722 21.0177 -6.6494 12.4347 -8.88227 13.1933C-11.1151 13.9519 -10.2778 24.2766 -3.90017 33.8429C-1.96564 36.7712 0.385314 39.3979 3.07756 41.6391C3.26766 41.8237 3.46801 41.9972 3.67764 42.1589C5.59884 43.721 7.68633 45.0637 9.90178 46.1624C9.95466 46.196 10.0108 46.2243 10.0692 46.2466C11.8593 47.1442 13.728 47.8731 15.6514 48.424C16.5167 48.7049 17.4098 48.9437 18.3309 49.1545L19.0705 49.309C19.8381 49.4775 20.6056 49.6321 21.3592 49.7585C23.3549 50.1378 25.2947 50.4047 27.1507 50.5873C30.8585 50.984 34.5918 51.0827 38.3151 50.8823L39.8781 50.7699C40.6317 50.7699 41.3434 50.6435 42.0412 50.5592L43.9252 50.3204C47.0602 49.9251 50.1436 49.1904 53.1219 48.129C53.1219 48.129 59.3739 26.5664 55.8013 26.4399ZM43.367 32.6629C43.367 33.1967 43.367 33.5198 43.367 33.59C43.367 33.6602 43.353 33.1967 43.367 32.6629Z" fill="url(#paint29_linear_1422_614)"/>
<path fill-rule="evenodd" clip-rule="evenodd" d="M39.8642 50.7978C39.6269 51.7671 39.3478 52.3149 39.0408 52.2026C38.7338 52.0902 38.5244 51.6266 38.3012 50.9242C37.2126 47.6091 36.7661 39.0402 39.0827 37.5091C41.0364 36.1886 40.8131 46.8927 39.8642 50.7978Z" fill="url(#paint30_linear_1422_614)"/>
<path fill-rule="evenodd" clip-rule="evenodd" d="M43.9113 50.3484C43.4229 51.3598 42.9205 52.006 42.3902 52.0762C42.1529 52.0762 42.0273 51.5424 42.0273 50.5872C42.0273 46.5135 43.7997 35.3037 45.9209 32.9297C48.0422 30.5557 46.3675 45.193 43.9113 50.3484Z" fill="url(#paint31_linear_1422_614)"/>
<path fill-rule="evenodd" clip-rule="evenodd" d="M27.1369 50.6153C26.8075 54.2677 26.2434 57.8948 25.4482 61.4739C19.963 64.9337 13.8395 67.2416 7.44569 68.2587C6.8177 68.3711 6.14783 68.4694 5.49193 68.5537C-4.05169 69.7911 -13.7496 68.3674 -22.5446 64.4379C-22.5446 64.4379 -39.5842 39.4757 -36.0116 36.7927C-32.439 34.1097 -21.2467 62.1622 -20.1164 62.4572C-18.986 62.7522 -40.589 23.0123 -35.3976 19.4443C-31.211 16.6348 -24.3309 33.8428 -21.8329 40.5153C-23.7866 34.8963 -28.0151 22.043 -26.0195 21.2704C-24.0239 20.4978 -18.7487 41.625 -16.9206 48.2553C-16.5577 49.5758 -16.3344 50.3203 -16.2786 50.1939C-16.3265 49.6302 -16.4389 49.074 -16.6135 48.5363C-18.0091 43.114 -22.9772 25.7094 -23.2842 15.9605C-23.3959 12.1256 -22.7958 9.49875 -20.9816 9.21781C-17.1299 8.61377 -13.6968 21.439 -11.2128 33.604C-9.02176 44.5468 -7.64017 54.9278 -7.48666 54.5907C-7.15173 53.8883 -11.3802 28.3643 -7.80763 28.9262C-5.85387 29.2353 -3.94197 36.7927 -2.6162 43.5635C-3.09068 40.4169 -3.55122 36.9613 -3.84428 33.7304C-4.37459 28.1115 -4.4025 23.4477 -3.10464 22.9139C-0.955498 22.0149 1.52858 33.1825 3.06367 41.5266C3.44047 43.6057 3.74749 45.488 3.99869 46.977C4.24989 48.466 4.43131 49.7022 4.48713 50.1236C4.48713 49.7022 4.30571 48.466 4.11034 46.7523C3.97078 45.4318 3.81727 43.8164 3.66376 42.0464C3.21121 37.3787 3.04808 32.6872 3.17532 27.9991C3.34278 24.6558 3.87309 22.2397 5.01744 22.029C5.0676 22.0145 5.12079 22.0145 5.17095 22.029C5.44785 22.0322 5.71281 22.1429 5.91059 22.338C6.51974 23.0531 6.95884 23.8987 7.1945 24.8103C8.70169 29.5583 9.48319 39.3072 9.87394 46.1061C9.87394 46.2325 9.87394 46.3589 9.87394 46.4713C9.87394 47.7777 9.99954 48.9436 10.0414 49.955C10.0414 50.2922 10.0414 50.6153 10.0414 50.9103C10.0414 50.6715 10.0414 50.4186 10.0414 50.1517C10.0414 49.0139 10.0414 47.6373 10.0414 46.1763V44.898C10.2228 38.5627 11.0602 31.1878 14.0048 32.424C15.0375 32.8595 15.8887 34.2923 16.5726 36.287L16.6982 36.6382C17.8518 40.7358 18.6043 44.9373 18.945 49.1825C19.5311 54.984 19.6567 60.027 19.6567 60.027C19.6567 60.027 20.3405 54.703 21.2337 49.632C22.0152 45.0525 22.9781 40.6698 23.7596 40.5574C27.1369 40.2484 27.5416 45.3475 27.1369 50.6153Z" fill="url(#paint32_linear_1422_614)"/>
<path fill-rule="evenodd" clip-rule="evenodd" d="M-4.59786 48.2975C-7.38895 49.4634 -2.5185 55.3212 -0.550776 55.5459C1.41694 55.7707 -2.19752 47.2018 -4.59786 48.2975Z" fill="url(#paint33_linear_1422_614)"/>
<path fill-rule="evenodd" clip-rule="evenodd" d="M-0.299717 50.5453C-1.69526 50.7279 -3.73276 42.4681 -1.51384 40.7824C0.705075 39.0967 3.24497 50.0677 -0.299717 50.5453Z" fill="url(#paint34_linear_1422_614)"/>
<path fill-rule="evenodd" clip-rule="evenodd" d="M13.3209 55.8268C10.0693 55.9673 7.96201 42.7768 12.344 42.6364C16.726 42.4959 16.5307 55.6863 13.3209 55.8268Z" fill="url(#paint35_linear_1422_614)"/>
<path fill-rule="evenodd" clip-rule="evenodd" d="M7.44565 68.2587C7.29263 68.7553 7.07188 69.228 6.78974 69.6635C6.41294 70.2113 5.96637 69.6635 5.49188 68.5959C3.80327 64.3817 2.03093 51.3598 3.99865 47.1315C4.0245 47.0514 4.06213 46.9757 4.11029 46.9068L4.19402 46.7523C6.88743 42.3273 9.80412 61.4177 7.44565 68.2587Z" fill="url(#paint36_linear_1422_614)"/>
<path fill-rule="evenodd" clip-rule="evenodd" d="M6.03624 31.2862C4.6407 31.6654 3.02186 23.0685 5.21287 22.2818C7.40388 21.4952 8.64591 30.5417 6.03624 31.2862Z" fill="url(#paint37_linear_1422_614)"/>
<path fill-rule="evenodd" clip-rule="evenodd" d="M0.551613 34.9385C-4.68169 35.9921 -4.63982 22.8859 -2.61628 23.3073C-0.592733 23.7287 1.59827 34.7278 0.551613 34.9385Z" fill="url(#paint38_linear_1422_614)"/>
<path fill-rule="evenodd" clip-rule="evenodd" d="M222.92 106.169V107.191L222.207 132.411L222.11 135.866L221.753 150.755L214.926 162.465L209.203 172.197C212.981 172.197 210.257 173.721 202.717 176.089C200.657 176.738 198.209 177.452 195.452 178.214C190.847 179.479 185.35 180.89 179.108 182.415C171.908 184.166 163.72 186.048 154.785 187.994C134.857 192.308 111.151 196.882 86.2124 200.969C78.9968 202.137 71.619 203.24 64.3223 204.213L62.9765 204.408L57.1229 205.219C46.2265 206.711 35.2814 208.025 24.4822 209.111C-4.78568 212.096 -32.8213 213.393 -55.8465 211.771C-73.2937 210.539 -87.8871 207.619 -98.0053 202.478C-110.702 195.99 -116.198 185.951 -111.123 171.24C-110.577 169.662 -109.949 168.114 -109.242 166.601C-109.015 166.131 -101.881 158.719 -92.4111 149.003C-73.0991 129.184 -44.042 99.7135 -44.042 99.7135L32.5411 99.4216H35.784L142.802 99.0161L142.981 106.769L143.143 114.084L145.575 106.639L147.294 101.4L174.195 100.216L175.492 105.244L178.735 117.441L222.92 106.169Z" fill="url(#paint39_linear_1422_614)"/>
<path fill-rule="evenodd" clip-rule="evenodd" d="M210.97 128.389C210.086 129.369 209.138 130.29 208.132 131.146C206.514 132.575 204.652 133.701 202.636 134.471C181.264 142.11 143.289 150.966 97.4656 155.264C95.1469 155.491 92.8119 155.685 90.4608 155.88C85.8395 156.253 81.1696 156.594 76.4349 156.869C69.1382 157.302 61.7063 157.599 54.1393 157.762H51.5774C47.4588 157.762 43.3078 157.859 39.1243 157.762C36.7894 157.762 34.422 157.762 32.0546 157.762H29.0873L-33.8428 139.774L-36.5183 134.39L-43.9933 119.436C-43.9933 119.436 -22.914 117.814 7.26201 115.592L29.6224 113.97C37.7299 113.386 46.194 112.802 54.869 112.218L59.8308 111.878C133.949 106.866 220.926 101.903 222.937 106.006C223.634 107.45 218.51 120.247 210.97 128.389Z" fill="#147EA3"/>
<path fill-rule="evenodd" clip-rule="evenodd" d="M142.932 99C142.932 99 116.988 104.547 83.1316 108.731C76.4672 109.559 69.4948 110.353 62.3603 111.035L55.8743 111.618C23.1688 114.392 -12.1473 114.733 -37.248 107.791L-43.9123 99.6812L32.6708 99.3893H35.9137L142.932 99Z" fill="#147EA3"/>
<path fill-rule="evenodd" clip-rule="evenodd" d="M147.424 101.384C156.245 106.412 174.373 101.384 174.373 100.2C174.373 99.0162 147.424 101.384 147.424 101.384Z" fill="#0C82DD"/>
<path style="mix-blend-mode:multiply" opacity="0.5" fill-rule="evenodd" clip-rule="evenodd" d="M183.178 140.862L182.724 140.586C176.927 137.306 170.816 134.616 164.482 132.557C163.785 132.314 163.055 132.087 162.325 131.86C159.228 130.903 155.839 129.995 152.288 129.249L151.413 128.924L168.244 130.952L173.481 131.584L201.322 134.958H201.727V136.661L202.36 164.671L202.603 176.025V178.312V178.603L178.832 183.388L178.929 182.35L179.4 177.776L180.616 165.79L183.178 140.862Z" fill="url(#paint40_linear_1422_614)"/>
<path style="mix-blend-mode:multiply" opacity="0.7" fill-rule="evenodd" clip-rule="evenodd" d="M92.1146 155.832L84.2828 213.766L153.277 193.363L164.968 145.808L92.1146 155.832Z" fill="url(#paint41_linear_1422_614)"/>
<path style="mix-blend-mode:screen" fill-rule="evenodd" clip-rule="evenodd" d="M210.97 128.389C209.527 128.032 208.003 127.724 206.43 127.448C194.642 125.421 193.004 129.07 174.892 126.134C169.103 125.177 162.909 124.091 156.423 122.891L158.369 123.426C166.849 125.794 172.589 127.837 173.206 128.956C173.546 129.573 171.698 130.254 168.179 130.919C166.557 131.227 164.595 131.535 162.325 131.827C136.122 135.217 69.6733 137.342 38.9298 127.189C36.4814 126.394 37.8597 123.945 41.6053 121.042C43.3026 119.747 45.0909 118.576 46.9562 117.538C48.2048 116.841 49.5344 116.143 50.9451 115.462C53.8272 114.064 56.7951 112.851 59.8309 111.829C60.6416 111.559 61.4686 111.299 62.3118 111.051C67.0043 109.622 71.8587 108.794 76.7593 108.585C78.4943 108.585 80.6022 108.585 83.002 108.78C66.1871 105.423 49.956 102.179 35.849 99.4053H32.606C48.6102 102.179 59.9119 105.893 57.3986 110.434C56.9485 110.952 56.3966 111.372 55.7771 111.667L54.8529 112.202C53.2314 113.078 50.9775 114.165 48.5291 115.268L43.8105 117.36C40.5676 118.722 37.6164 119.987 35.622 120.814L33.3681 121.739L25.0823 123.929C25.0823 123.929 -18.4385 121.35 -36.5344 134.341L-33.8589 139.726L29.0874 157.729H32.0547C34.4221 157.729 36.7895 157.729 39.1244 157.729C43.3079 157.729 47.4589 157.729 51.5775 157.729L47.086 148.857L54.1394 157.681C61.7064 157.518 69.1382 157.221 76.435 156.788C81.1697 156.513 85.8396 156.172 90.4609 155.799C92.812 155.604 95.147 155.41 97.4657 155.183L97.0603 155.085C67.8735 147.365 49.7128 137.763 46.7941 134.601C46.7941 134.601 120.15 137.666 143.224 135.039C149.872 134.293 157.12 133.336 164.498 132.476C167.466 132.135 170.449 131.795 173.433 131.503C185.886 130.27 198.209 129.654 208.149 131.065C210.376 131.368 212.58 131.817 214.748 132.411C217.355 133.167 219.835 134.304 222.11 135.785L222.207 132.33C218.618 130.607 214.849 129.286 210.97 128.389ZM49.0804 144.267C40.7783 148.209 -18.7466 137.244 -19.6709 132.217C-21.1302 124.253 25.5525 124.318 28.7793 125.632C32.0061 126.945 57.3824 140.391 49.0804 144.267ZM92.2445 109.688C88.9042 109.25 85.7585 108.926 83.1317 108.731L88.9853 109.899C111.946 114.457 135.7 119.111 156.472 122.874C135.336 117.256 113.89 112.875 92.2445 109.753V109.688Z" fill="url(#paint42_linear_1422_614)"/>
<path style="mix-blend-mode:multiply" opacity="0.86" fill-rule="evenodd" clip-rule="evenodd" d="M102.103 105.179L67.6789 118.479L69.9652 120.555L23.1203 155.831L-28.6378 141.883L-28.1837 126.572L30.3197 109.477L102.103 105.179Z" fill="url(#paint43_linear_1422_614)"/>
<path fill-rule="evenodd" clip-rule="evenodd" d="M52.8145 103.599C55.2474 103.504 56.8659 110.608 57.103 111.719C56.8247 110.147 54.4536 95.9289 58.2163 93.8333C60.876 92.3559 61.6389 99.6905 61.876 104.667C61.876 101.702 62.1028 98.2655 63.4635 98.0978C64.4944 97.9616 65.2367 100.047 65.6902 102.362C65.2985 98.5588 65.0511 94.2734 65.814 93.98C66.5768 93.6866 67.2778 98.0454 67.8757 102.362C67.2984 96.1699 66.9479 88.6363 68.4221 87.4732C70.9581 85.5034 72.4735 108.429 72.4735 108.701C72.4735 107.999 73.8239 85.891 76.8753 85.3357C78.7515 84.9899 78.1227 94.6296 77.3495 102.195C78.3804 94.6192 80.2154 84.9271 82.504 85.0004C86.1533 85.1366 81.6689 110.388 81.638 111.279C81.6785 111.189 81.7063 111.094 81.7205 110.996C82.3493 108.377 85.9471 90.7737 89.6995 89.7783C91.7097 89.2544 91.2665 94.7554 90.3284 100.34C90.3245 100.41 90.3245 100.48 90.3284 100.55C89.9469 102.771 89.4933 104.982 89.0913 106.836C88.5552 109.33 88.112 111.143 88.0604 111.352C88.1635 111.132 89.7201 108.209 91.7304 104.793C94.823 99.5542 98.9465 93.1522 100.596 93.718C102.245 94.2839 101.627 101.985 96.9157 109.121C95.4867 111.305 93.75 113.264 91.7613 114.936C91.6209 115.073 91.4729 115.203 91.318 115.324C89.8988 116.489 88.3568 117.49 86.7203 118.31C86.6812 118.335 86.6398 118.356 86.5966 118.373C85.2743 119.042 83.8939 119.586 82.473 119.997C81.8339 120.206 81.1741 120.384 80.4937 120.542L79.9474 120.657C79.3804 120.783 78.8134 120.898 78.2567 120.992C76.7826 121.275 75.3496 121.474 73.9785 121.61C71.2396 121.906 68.4819 121.98 65.7315 121.83L64.5769 121.746C64.0202 121.746 63.4945 121.652 62.979 121.589L61.5873 121.411C59.2716 121.116 56.9939 120.568 54.7938 119.777C54.7938 119.777 50.1755 103.693 52.8145 103.599ZM61.9997 108.24C61.9997 108.639 61.9997 108.88 61.9997 108.932C61.9997 108.984 62.01 108.639 61.9997 108.24Z" fill="url(#paint44_linear_1422_614)"/>
<path fill-rule="evenodd" clip-rule="evenodd" d="M64.5872 121.767C64.7624 122.49 64.9686 122.899 65.1954 122.815C65.4222 122.731 65.5768 122.385 65.7418 121.861C66.5459 119.389 66.8757 112.997 65.1645 111.855C63.7212 110.87 63.8862 118.854 64.5872 121.767Z" fill="url(#paint45_linear_1422_614)"/>
<path fill-rule="evenodd" clip-rule="evenodd" d="M61.5976 121.432C61.9584 122.186 62.3296 122.668 62.7213 122.721C62.8965 122.721 62.9893 122.323 62.9893 121.61C62.9893 118.571 61.6801 110.21 60.1132 108.439C58.5462 106.668 59.7833 117.586 61.5976 121.432Z" fill="url(#paint46_linear_1422_614)"/>
<path fill-rule="evenodd" clip-rule="evenodd" d="M73.9888 121.631C74.2321 124.355 74.6488 127.061 75.2362 129.731C79.2881 132.311 83.8115 134.033 88.5346 134.791C88.9985 134.875 89.4933 134.949 89.9778 135.011C97.0276 135.934 104.191 134.872 110.688 131.941C110.688 131.941 123.275 113.322 120.636 111.321C117.997 109.32 109.73 130.244 108.895 130.464C108.059 130.684 124.018 101.042 120.183 98.3806C117.09 96.285 112.008 109.12 110.162 114.097C111.606 109.906 114.729 100.319 113.255 99.7427C111.781 99.1664 107.884 114.925 106.534 119.871C106.266 120.856 106.101 121.411 106.06 121.317C106.095 120.896 106.178 120.481 106.307 120.08C107.338 116.036 111.008 103.054 111.235 95.782C111.317 92.9216 110.874 90.9622 109.534 90.7526C106.688 90.3021 104.152 99.8684 102.317 108.942C100.699 117.105 99.6784 124.848 99.565 124.596C99.3176 124.072 102.441 105.034 99.8021 105.453C98.3589 105.684 96.9466 111.321 95.9672 116.371C96.3177 114.024 96.6579 111.447 96.8744 109.037C97.2662 104.845 97.2868 101.367 96.328 100.969C94.7405 100.298 92.9055 108.628 91.7715 114.852C91.4932 116.403 91.2664 117.807 91.0809 118.917C90.8953 120.028 90.7613 120.95 90.72 121.264C90.72 120.95 90.8541 120.028 90.9984 118.75C91.1015 117.765 91.2149 116.56 91.3283 115.24C91.6626 111.758 91.7831 108.258 91.6891 104.762C91.5654 102.268 91.1736 100.466 90.3283 100.308C90.2913 100.298 90.252 100.298 90.2149 100.308C90.0104 100.311 89.8146 100.393 89.6685 100.539C89.2186 101.072 88.8942 101.703 88.7201 102.383C87.6068 105.925 87.0295 113.196 86.7408 118.268C86.7408 118.362 86.7408 118.456 86.7408 118.54C86.7408 119.515 86.6481 120.384 86.6171 121.139C86.6171 121.39 86.6171 121.631 86.6171 121.851C86.6171 121.673 86.6171 121.484 86.6171 121.285C86.6171 120.437 86.6171 119.41 86.6171 118.32V117.367C86.4831 112.641 85.8646 107.14 83.6894 108.062C82.9266 108.387 82.2977 109.456 81.7926 110.944L81.6998 111.206C80.8477 114.262 80.2918 117.396 80.0401 120.562C79.6071 124.89 79.5143 128.651 79.5143 128.651C79.5143 128.651 79.0092 124.68 78.3495 120.898C77.7722 117.482 77.0608 114.213 76.4836 114.129C73.9888 113.898 73.6899 117.702 73.9888 121.631Z" fill="url(#paint47_linear_1422_614)"/>
<path fill-rule="evenodd" clip-rule="evenodd" d="M102.318 108.984C102.379 109.917 102.544 110.483 102.823 110.525C105.462 110.86 110.554 101.985 111.214 95.8555C111.297 92.995 110.853 91.0356 109.513 90.8261C106.668 90.3441 104.132 99.9104 102.318 108.984Z" fill="url(#paint48_linear_1422_614)"/>
<path fill-rule="evenodd" clip-rule="evenodd" d="M97.4311 119.902C99.4928 120.772 95.8951 125.141 94.4415 125.309C92.988 125.477 95.6579 119.085 97.4311 119.902Z" fill="url(#paint49_linear_1422_614)"/>
<path fill-rule="evenodd" clip-rule="evenodd" d="M94.2561 121.579C95.287 121.715 96.792 115.554 95.1529 114.297C93.5138 113.039 91.6376 121.223 94.2561 121.579Z" fill="url(#paint50_linear_1422_614)"/>
<path fill-rule="evenodd" clip-rule="evenodd" d="M84.1946 125.518C86.5965 125.623 88.1531 115.784 84.9162 115.68C81.6792 115.575 81.8235 125.414 84.1946 125.518Z" fill="url(#paint51_linear_1422_614)"/>
<path fill-rule="evenodd" clip-rule="evenodd" d="M103.225 126.598C104.256 127.645 111.369 120.52 109.874 118.666C109.297 117.953 107.905 118.666 106.513 119.913L106.286 120.122C104.132 122.155 102.08 125.403 103.225 126.598Z" fill="url(#paint52_linear_1422_614)"/>
<path fill-rule="evenodd" clip-rule="evenodd" d="M88.5346 134.791C88.6477 135.162 88.8107 135.514 89.0191 135.839C89.2975 136.248 89.6274 135.839 89.9779 135.043C91.2252 131.899 92.5344 122.186 91.0809 119.033C91.0618 118.973 91.034 118.916 90.9984 118.865L90.9366 118.75C88.947 115.449 86.7924 129.689 88.5346 134.791Z" fill="url(#paint53_linear_1422_614)"/>
<path fill-rule="evenodd" clip-rule="evenodd" d="M89.5757 107.213C90.6066 107.496 91.8025 101.084 90.184 100.497C88.5655 99.9103 87.648 106.658 89.5757 107.213Z" fill="url(#paint54_linear_1422_614)"/>
<path fill-rule="evenodd" clip-rule="evenodd" d="M102.441 121.788C103.874 121.851 105.379 116.445 103.699 116.34C102.019 116.235 101.245 121.736 102.441 121.788Z" fill="url(#paint55_linear_1422_614)"/>
<path fill-rule="evenodd" clip-rule="evenodd" d="M93.6272 109.938C97.493 110.724 97.4621 100.948 95.9673 101.262C94.4725 101.577 92.854 109.781 93.6272 109.938Z" fill="url(#paint56_linear_1422_614)"/>
<path style="mix-blend-mode:screen" fill-rule="evenodd" clip-rule="evenodd" d="M113.781 133.848C113.874 135.284 120.605 127.31 120.595 124.774C120.585 122.239 113.616 131.061 113.781 133.848Z" fill="url(#paint57_linear_1422_614)"/>
<path fill-rule="evenodd" clip-rule="evenodd" d="M84.1855 113.599C81.7526 113.504 80.1341 120.608 79.897 121.719C80.1753 120.147 82.5464 105.929 78.7837 103.833C76.124 102.356 75.3611 109.69 75.124 114.667C75.124 111.702 74.8972 108.265 73.5365 108.098C72.5056 107.962 71.7633 110.047 71.3098 112.362C71.7015 108.559 71.9489 104.273 71.186 103.98C70.4232 103.687 69.7222 108.045 69.1243 112.362C69.7016 106.17 70.0521 98.6363 68.5779 97.4732C66.0419 95.5034 64.5265 118.429 64.5265 118.701C64.5265 117.999 63.1761 95.891 60.1247 95.3357C58.2485 94.9899 58.8773 104.63 59.6505 112.195C58.6196 104.619 56.7846 94.9271 54.496 95.0004C50.8467 95.1366 55.3311 120.388 55.362 121.279C55.3215 121.189 55.2937 121.094 55.2795 120.996C54.6507 118.377 51.0529 100.774 47.3005 99.7783C45.2903 99.2544 45.7335 104.755 46.6716 110.34C46.6755 110.41 46.6755 110.48 46.6716 110.55C47.0531 112.771 47.5067 114.982 47.9087 116.836C48.4448 119.33 48.888 121.143 48.9396 121.352C48.8365 121.132 47.2799 118.209 45.2696 114.793C42.177 109.554 38.0535 103.152 36.4041 103.718C34.7546 104.284 35.3732 111.985 40.0843 119.121C41.5133 121.305 43.25 123.264 45.2387 124.936C45.3791 125.073 45.5271 125.203 45.682 125.324C47.1012 126.489 48.6432 127.49 50.2797 128.31C50.3188 128.335 50.3602 128.356 50.4034 128.373C51.7257 129.042 53.1061 129.586 54.527 129.997C55.1661 130.206 55.8259 130.384 56.5063 130.542L57.0526 130.657C57.6196 130.783 58.1866 130.898 58.7433 130.992C60.2174 131.275 61.6504 131.474 63.0215 131.61C65.7604 131.906 68.5181 131.98 71.2685 131.83L72.4231 131.746C72.9798 131.746 73.5055 131.652 74.021 131.589L75.4127 131.411C77.7284 131.116 80.0061 130.568 82.2062 129.777C82.2062 129.777 86.8245 113.693 84.1855 113.599ZM75.0003 118.24C75.0003 118.639 75.0003 118.88 75.0003 118.932C75.0003 118.984 74.99 118.639 75.0003 118.24Z" fill="url(#paint58_linear_1422_614)"/>
<path fill-rule="evenodd" clip-rule="evenodd" d="M72.4128 131.767C72.2376 132.49 72.0314 132.899 71.8046 132.815C71.5778 132.731 71.4232 132.385 71.2582 131.861C70.4541 129.389 70.1243 122.997 71.8355 121.855C73.2788 120.87 73.1138 128.854 72.4128 131.767Z" fill="url(#paint59_linear_1422_614)"/>
<path fill-rule="evenodd" clip-rule="evenodd" d="M75.4024 131.432C75.0416 132.186 74.6704 132.668 74.2787 132.721C74.1035 132.721 74.0107 132.323 74.0107 131.61C74.0107 128.571 75.3199 120.21 76.8868 118.439C78.4538 116.668 77.2167 127.586 75.4024 131.432Z" fill="url(#paint60_linear_1422_614)"/>
<path fill-rule="evenodd" clip-rule="evenodd" d="M63.0112 131.631C62.7679 134.355 62.3512 137.061 61.7638 139.731C57.7119 142.311 53.1885 144.033 48.4654 144.791C48.0015 144.875 47.5067 144.949 47.0222 145.011C39.9724 145.934 32.8086 144.872 26.3118 141.941C26.3118 141.941 13.7247 123.322 16.3637 121.321C19.0028 119.32 27.2705 140.244 28.1055 140.464C28.9405 140.684 12.9824 111.042 16.8173 108.381C19.91 106.285 24.9922 119.12 26.8375 124.097C25.3943 119.906 22.2707 110.319 23.7449 109.743C25.219 109.166 29.1158 124.925 30.4662 129.871C30.7342 130.856 30.8992 131.411 30.9404 131.317C30.9051 130.896 30.822 130.481 30.693 130.08C29.6621 126.036 25.9922 113.054 25.7654 105.782C25.6829 102.922 26.1262 100.962 27.4663 100.753C30.3116 100.302 32.8475 109.868 34.6825 118.942C36.301 127.105 37.3216 134.848 37.435 134.596C37.6824 134.072 34.5588 115.034 37.1979 115.453C38.6411 115.684 40.0534 121.321 41.0328 126.371C40.6823 124.024 40.3421 121.447 40.1256 119.037C39.7338 114.845 39.7132 111.367 40.672 110.969C42.2595 110.298 44.0945 118.628 45.2285 124.852C45.5068 126.403 45.7336 127.807 45.9191 128.917C46.1047 130.028 46.2387 130.95 46.28 131.264C46.28 130.95 46.1459 130.028 46.0016 128.75C45.8985 127.765 45.7851 126.56 45.6717 125.24C45.3374 121.758 45.2169 118.258 45.3109 114.762C45.4346 112.268 45.8264 110.466 46.6717 110.308C46.7087 110.298 46.748 110.298 46.7851 110.308C46.9896 110.311 47.1854 110.393 47.3315 110.539C47.7814 111.072 48.1058 111.703 48.2799 112.383C49.3932 115.925 49.9705 123.196 50.2592 128.268C50.2592 128.362 50.2592 128.456 50.2592 128.54C50.2592 129.515 50.3519 130.384 50.3829 131.139C50.3829 131.39 50.3829 131.631 50.3829 131.851C50.3829 131.673 50.3829 131.484 50.3829 131.285C50.3829 130.437 50.3829 129.41 50.3829 128.32V127.367C50.5169 122.641 51.1354 117.14 53.3106 118.062C54.0734 118.387 54.7023 119.456 55.2074 120.944L55.3002 121.206C56.1523 124.262 56.7082 127.396 56.9599 130.562C57.3929 134.89 57.4857 138.651 57.4857 138.651C57.4857 138.651 57.9908 134.68 58.6505 130.898C59.2278 127.482 59.9392 124.213 60.5164 124.129C63.0112 123.898 63.3101 127.702 63.0112 131.631Z" fill="url(#paint61_linear_1422_614)"/>
<path fill-rule="evenodd" clip-rule="evenodd" d="M34.6825 118.984C34.6206 119.917 34.4557 120.483 34.1773 120.525C31.5383 120.86 26.4457 111.985 25.786 105.855C25.7035 102.995 26.1468 101.036 27.4869 100.826C30.3322 100.344 32.8681 109.91 34.6825 118.984Z" fill="url(#paint62_linear_1422_614)"/>
<path fill-rule="evenodd" clip-rule="evenodd" d="M39.5689 129.902C37.5072 130.772 41.1049 135.141 42.5585 135.309C44.012 135.477 41.3421 129.085 39.5689 129.902Z" fill="url(#paint63_linear_1422_614)"/>
<path fill-rule="evenodd" clip-rule="evenodd" d="M42.7439 131.579C41.713 131.715 40.208 125.554 41.8471 124.297C43.4862 123.039 45.3624 131.223 42.7439 131.579Z" fill="url(#paint64_linear_1422_614)"/>
<path fill-rule="evenodd" clip-rule="evenodd" d="M52.8054 135.518C50.4035 135.623 48.8469 125.784 52.0838 125.68C55.3208 125.575 55.1765 135.414 52.8054 135.518Z" fill="url(#paint65_linear_1422_614)"/>
<path fill-rule="evenodd" clip-rule="evenodd" d="M33.7753 136.598C32.7444 137.645 25.6313 130.52 27.1261 128.666C27.7034 127.953 29.0951 128.666 30.4868 129.913L30.7136 130.122C32.8681 132.155 34.9196 135.403 33.7753 136.598Z" fill="url(#paint66_linear_1422_614)"/>
<path fill-rule="evenodd" clip-rule="evenodd" d="M48.4654 144.791C48.3523 145.162 48.1893 145.514 47.9809 145.839C47.7025 146.248 47.3726 145.839 47.0221 145.043C45.7748 141.899 44.4656 132.186 45.9191 129.033C45.9382 128.973 45.966 128.916 46.0016 128.865L46.0634 128.75C48.053 125.449 50.2076 139.689 48.4654 144.791Z" fill="url(#paint67_linear_1422_614)"/>
<path fill-rule="evenodd" clip-rule="evenodd" d="M47.4243 117.213C46.3934 117.496 45.1975 111.084 46.816 110.497C48.4345 109.91 49.352 116.658 47.4243 117.213Z" fill="url(#paint68_linear_1422_614)"/>
<path fill-rule="evenodd" clip-rule="evenodd" d="M34.5588 131.788C33.1258 131.851 31.6208 126.445 33.3011 126.34C34.9814 126.235 35.7546 131.736 34.5588 131.788Z" fill="url(#paint69_linear_1422_614)"/>
<path fill-rule="evenodd" clip-rule="evenodd" d="M43.3728 119.938C39.507 120.724 39.5379 110.948 41.0327 111.262C42.5275 111.577 44.146 119.781 43.3728 119.938Z" fill="url(#paint70_linear_1422_614)"/>
<path style="mix-blend-mode:screen" fill-rule="evenodd" clip-rule="evenodd" d="M23.2191 143.848C23.1263 145.284 16.3947 137.31 16.405 134.774C16.4153 132.239 23.3841 141.061 23.2191 143.848Z" fill="url(#paint71_linear_1422_614)"/>
<defs>
<linearGradient id="paint0_linear_1422_614" x1="-102.115" y1="19.3384" x2="-98.9186" y2="77.8081" gradientUnits="userSpaceOnUse">
<stop stop-color="#1C7B9D"/>
<stop offset="0.37" stop-color="#036284"/>
<stop offset="0.99" stop-color="#024F6A"/>
</linearGradient>
<linearGradient id="paint1_linear_1422_614" x1="-27.834" y1="99.6393" x2="88.8527" y2="67.8976" gradientUnits="userSpaceOnUse">
<stop stop-color="#38327F"/>
<stop offset="1" stop-color="#7B92FF"/>
</linearGradient>
<linearGradient id="paint2_linear_1422_614" x1="-27.834" y1="99.6393" x2="88.8527" y2="67.8976" gradientUnits="userSpaceOnUse">
<stop stop-color="#104360"/>
<stop offset="1" stop-color="#13817A"/>
</linearGradient>
<linearGradient id="paint3_linear_1422_614" x1="-28.515" y1="-247.596" x2="-29.5696" y2="192.055" gradientUnits="userSpaceOnUse">
<stop stop-color="#2B33C4"/>
<stop offset="1" stop-color="white"/>
</linearGradient>
<linearGradient id="paint4_linear_1422_614" x1="-43.2058" y1="-26.6105" x2="-79.5291" y2="162.355" gradientUnits="userSpaceOnUse">
<stop stop-color="#2A96C1"/>
<stop offset="0.04" stop-color="#278AB2"/>
<stop offset="0.16" stop-color="#1D6683"/>
<stop offset="0.29" stop-color="#14475B"/>
<stop offset="0.42" stop-color="#0D2D3A"/>
<stop offset="0.55" stop-color="#071920"/>
<stop offset="0.69" stop-color="#030B0E"/>
<stop offset="0.84" stop-color="#010304"/>
<stop offset="1"/>
</linearGradient>
<linearGradient id="paint5_linear_1422_614" x1="768.328" y1="25.2662" x2="784.637" y2="279.021" gradientUnits="userSpaceOnUse">
<stop stop-color="#09A3CF"/>
<stop offset="1" stop-color="#11638B"/>
</linearGradient>
<linearGradient id="paint6_linear_1422_614" x1="607.973" y1="76.3348" x2="1010.85" y2="-366.063" gradientUnits="userSpaceOnUse">
<stop stop-color="#104360"/>
<stop offset="1" stop-color="#13817A"/>
</linearGradient>
<linearGradient id="paint7_linear_1422_614" x1="850.883" y1="160.79" x2="848.658" y2="53.5021" gradientUnits="userSpaceOnUse">
<stop stop-color="#2B33C4"/>
<stop offset="1" stop-color="white"/>
</linearGradient>
<linearGradient id="paint8_linear_1422_614" x1="894.519" y1="-21.6393" x2="926.242" y2="143.219" gradientUnits="userSpaceOnUse">
<stop stop-color="#2A96C1"/>
<stop offset="0.04" stop-color="#278AB2"/>
<stop offset="0.16" stop-color="#1D6683"/>
<stop offset="0.29" stop-color="#14475B"/>
<stop offset="0.42" stop-color="#0D2D3A"/>
<stop offset="0.55" stop-color="#071920"/>
<stop offset="0.69" stop-color="#030B0E"/>
<stop offset="0.84" stop-color="#010304"/>
<stop offset="1"/>
</linearGradient>
<linearGradient id="paint9_linear_1422_614" x1="984.84" y1="-3.48048" x2="998.196" y2="64.9771" gradientUnits="userSpaceOnUse">
<stop offset="0.01" stop-color="#FFFBB9"/>
<stop offset="0.19" stop-color="#FFF8B8"/>
<stop offset="0.33" stop-color="#FEEEB3"/>
<stop offset="0.45" stop-color="#FDDEAB"/>
<stop offset="0.57" stop-color="#FBC69F"/>
<stop offset="0.68" stop-color="#F9A891"/>
<stop offset="0.79" stop-color="#F7847F"/>
<stop offset="0.88" stop-color="#F4606E"/>
</linearGradient>
<linearGradient id="paint10_linear_1422_614" x1="1006.25" y1="45.8104" x2="986.639" y2="9.67995" gradientUnits="userSpaceOnUse">
<stop offset="0.01" stop-color="#FFFBB9"/>
<stop offset="0.19" stop-color="#FFF8B8"/>
<stop offset="0.33" stop-color="#FEEEB3"/>
<stop offset="0.45" stop-color="#FDDEAB"/>
<stop offset="0.57" stop-color="#FBC69F"/>
<stop offset="0.68" stop-color="#F9A891"/>
<stop offset="0.79" stop-color="#F7847F"/>
<stop offset="0.88" stop-color="#F4606E"/>
<stop offset="0.99" stop-color="#F27F5F"/>
</linearGradient>
<linearGradient id="paint11_linear_1422_614" x1="1021.89" y1="14.2509" x2="970.026" y2="63.2452" gradientUnits="userSpaceOnUse">
<stop stop-color="#1C33C4"/>
<stop offset="1" stop-color="white"/>
</linearGradient>
<linearGradient id="paint12_linear_1422_614" x1="977.225" y1="83.0781" x2="944.113" y2="34.1206" gradientUnits="userSpaceOnUse">
<stop offset="0.01" stop-color="#FFFBB9"/>
<stop offset="0.19" stop-color="#FFF8B8"/>
<stop offset="0.33" stop-color="#FEEEB3"/>
<stop offset="0.45" stop-color="#FDDEAB"/>
<stop offset="0.57" stop-color="#FBC69F"/>
<stop offset="0.68" stop-color="#F9A891"/>
<stop offset="0.79" stop-color="#F7847F"/>
<stop offset="0.88" stop-color="#F4606E"/>
<stop offset="0.99" stop-color="#F27F5F"/>
</linearGradient>
<linearGradient id="paint13_linear_1422_614" x1="771.385" y1="64.343" x2="770.44" y2="137.673" gradientUnits="userSpaceOnUse">
<stop stop-color="#1C7B9D"/>
<stop offset="0.37" stop-color="#036284"/>
<stop offset="0.99" stop-color="#024F6A"/>
</linearGradient>
<linearGradient id="paint14_linear_1422_614" x1="543.25" y1="197.393" x2="651.594" y2="163.609" gradientUnits="userSpaceOnUse">
<stop stop-color="#104360"/>
<stop offset="1" stop-color="#13817A"/>
</linearGradient>
<linearGradient id="paint15_linear_1422_614" x1="791.457" y1="182.776" x2="1022.38" y2="69.8998" gradientUnits="userSpaceOnUse">
<stop stop-color="#104360"/>
<stop offset="1" stop-color="#13817A"/>
</linearGradient>
<linearGradient id="paint16_linear_1422_614" x1="808.154" y1="71.3155" x2="839.951" y2="236.326" gradientUnits="userSpaceOnUse">
<stop stop-color="#2A96C1"/>
<stop offset="0.04" stop-color="#278AB2"/>
<stop offset="0.16" stop-color="#1D6683"/>
<stop offset="0.29" stop-color="#14475B"/>
<stop offset="0.42" stop-color="#0D2D3A"/>
<stop offset="0.55" stop-color="#071920"/>
<stop offset="0.69" stop-color="#030B0E"/>
<stop offset="0.84" stop-color="#010304"/>
<stop offset="1"/>
</linearGradient>
<linearGradient id="paint17_linear_1422_614" x1="884.263" y1="35.6026" x2="916.061" y2="200.614" gradientUnits="userSpaceOnUse">
<stop stop-color="#2A96C1"/>
<stop offset="0.04" stop-color="#278AB2"/>
<stop offset="0.16" stop-color="#1D6683"/>
<stop offset="0.29" stop-color="#14475B"/>
<stop offset="0.42" stop-color="#0D2D3A"/>
<stop offset="0.55" stop-color="#071920"/>
<stop offset="0.69" stop-color="#030B0E"/>
<stop offset="0.84" stop-color="#010304"/>
<stop offset="1"/>
</linearGradient>
<linearGradient id="paint18_linear_1422_614" x1="620.807" y1="94.1485" x2="652.604" y2="259.159" gradientUnits="userSpaceOnUse">
<stop stop-color="#2A96C1"/>
<stop offset="0.04" stop-color="#278AB2"/>
<stop offset="0.16" stop-color="#1D6683"/>
<stop offset="0.29" stop-color="#14475B"/>
<stop offset="0.42" stop-color="#0D2D3A"/>
<stop offset="0.55" stop-color="#071920"/>
<stop offset="0.69" stop-color="#030B0E"/>
<stop offset="0.84" stop-color="#010304"/>
<stop offset="1"/>
</linearGradient>
<linearGradient id="paint19_linear_1422_614" x1="696.916" y1="58.4356" x2="728.714" y2="223.447" gradientUnits="userSpaceOnUse">
<stop stop-color="#2A96C1"/>
<stop offset="0.04" stop-color="#278AB2"/>
<stop offset="0.16" stop-color="#1D6683"/>
<stop offset="0.29" stop-color="#14475B"/>
<stop offset="0.42" stop-color="#0D2D3A"/>
<stop offset="0.55" stop-color="#071920"/>
<stop offset="0.69" stop-color="#030B0E"/>
<stop offset="0.84" stop-color="#010304"/>
<stop offset="1"/>
</linearGradient>
<linearGradient id="paint20_linear_1422_614" x1="920.683" y1="-1.54594" x2="901.449" y2="129.395" gradientUnits="userSpaceOnUse">
<stop offset="0.01" stop-color="#FFFBB9"/>
<stop offset="0.19" stop-color="#FFF8B8"/>
<stop offset="0.33" stop-color="#FEEEB3"/>
<stop offset="0.45" stop-color="#FDDEAB"/>
<stop offset="0.57" stop-color="#FBC69F"/>
<stop offset="0.68" stop-color="#F9A891"/>
<stop offset="0.79" stop-color="#F7847F"/>
<stop offset="0.88" stop-color="#F4606E"/>
</linearGradient>
<linearGradient id="paint21_linear_1422_614" x1="908.389" y1="88.9075" x2="899.147" y2="71.2043" gradientUnits="userSpaceOnUse">
<stop offset="0.01" stop-color="#FFFBB9"/>
<stop offset="0.19" stop-color="#FFF8B8"/>
<stop offset="0.33" stop-color="#FEEEB3"/>
<stop offset="0.45" stop-color="#FDDEAB"/>
<stop offset="0.57" stop-color="#FBC69F"/>
<stop offset="0.68" stop-color="#F9A891"/>
<stop offset="0.79" stop-color="#F7847F"/>
<stop offset="0.88" stop-color="#F4606E"/>
<stop offset="1" stop-color="#F27F5F"/>
</linearGradient>
<linearGradient id="paint22_linear_1422_614" x1="910.936" y1="129.483" x2="915.391" y2="84.4665" gradientUnits="userSpaceOnUse">
<stop stop-color="#1C33C4"/>
<stop offset="1" stop-color="white"/>
</linearGradient>
<linearGradient id="paint23_linear_1422_614" x1="927.123" y1="148.625" x2="911.603" y2="76.7178" gradientUnits="userSpaceOnUse">
<stop offset="0.01" stop-color="#FFFBB9"/>
<stop offset="0.19" stop-color="#FFF8B8"/>
<stop offset="0.33" stop-color="#FEEEB3"/>
<stop offset="0.45" stop-color="#FDDEAB"/>
<stop offset="0.57" stop-color="#FBC69F"/>
<stop offset="0.68" stop-color="#F9A891"/>
<stop offset="0.79" stop-color="#F7847F"/>
<stop offset="0.88" stop-color="#F4606E"/>
<stop offset="0.99" stop-color="#F27F5F"/>
</linearGradient>
<linearGradient id="paint24_linear_1422_614" x1="913.011" y1="75.4741" x2="854.684" y2="116.589" gradientUnits="userSpaceOnUse">
<stop stop-color="#1C33C4"/>
<stop offset="1" stop-color="white"/>
</linearGradient>
<linearGradient id="paint25_linear_1422_614" x1="891.249" y1="-36.1319" x2="833.85" y2="249.706" gradientUnits="userSpaceOnUse">
<stop offset="0.01" stop-color="#FF3B59"/>
<stop offset="0.22" stop-color="#FC3959"/>
<stop offset="0.38" stop-color="#F23459"/>
<stop offset="0.53" stop-color="#E22A58"/>
<stop offset="0.67" stop-color="#CA1D58"/>
<stop offset="0.81" stop-color="#AD0B57"/>
<stop offset="0.88" stop-color="#990057"/>
</linearGradient>
<linearGradient id="paint26_linear_1422_614" x1="913.658" y1="154.772" x2="883.952" y2="47.3722" gradientUnits="userSpaceOnUse">
<stop offset="0.01" stop-color="#FFFBB9"/>
<stop offset="0.19" stop-color="#FFF8B8"/>
<stop offset="0.33" stop-color="#FEEEB3"/>
<stop offset="0.45" stop-color="#FDDEAB"/>
<stop offset="0.57" stop-color="#FBC69F"/>
<stop offset="0.68" stop-color="#F9A891"/>
<stop offset="0.79" stop-color="#F7847F"/>
<stop offset="0.88" stop-color="#F4606E"/>
<stop offset="0.99" stop-color="#F27F5F"/>
</linearGradient>
<linearGradient id="paint27_linear_1422_614" x1="931.221" y1="124.913" x2="922.457" y2="111.865" gradientUnits="userSpaceOnUse">
<stop offset="0.01" stop-color="#FFFBB9"/>
<stop offset="0.19" stop-color="#FFF8B8"/>
<stop offset="0.33" stop-color="#FEEEB3"/>
<stop offset="0.45" stop-color="#FDDEAB"/>
<stop offset="0.57" stop-color="#FBC69F"/>
<stop offset="0.68" stop-color="#F9A891"/>
<stop offset="0.79" stop-color="#F7847F"/>
<stop offset="0.88" stop-color="#F4606E"/>
<stop offset="0.99" stop-color="#F27F5F"/>
</linearGradient>
<linearGradient id="paint28_linear_1422_614" x1="913.95" y1="133.109" x2="908.719" y2="109.513" gradientUnits="userSpaceOnUse">
<stop offset="0.01" stop-color="#FFFBB9"/>
<stop offset="0.19" stop-color="#FFF8B8"/>
<stop offset="0.33" stop-color="#FEEEB3"/>
<stop offset="0.45" stop-color="#FDDEAB"/>
<stop offset="0.57" stop-color="#FBC69F"/>
<stop offset="0.68" stop-color="#F9A891"/>
<stop offset="0.79" stop-color="#F7847F"/>
<stop offset="0.88" stop-color="#F4606E"/>
<stop offset="0.99" stop-color="#F27F5F"/>
</linearGradient>
<linearGradient id="paint29_linear_1422_614" x1="33.2353" y1="-40.8889" x2="20.1741" y2="43.9454" gradientUnits="userSpaceOnUse">
<stop offset="0.01" stop-color="#FFFBB9"/>
<stop offset="0.19" stop-color="#FFF8B8"/>
<stop offset="0.33" stop-color="#FEEEB3"/>
<stop offset="0.45" stop-color="#FDDEAB"/>
<stop offset="0.57" stop-color="#FBC69F"/>
<stop offset="0.68" stop-color="#F9A891"/>
<stop offset="0.79" stop-color="#F7847F"/>
<stop offset="0.88" stop-color="#F4606E"/>
</linearGradient>
<linearGradient id="paint30_linear_1422_614" x1="38.6082" y1="-15.1122" x2="39.2021" y2="75.4087" gradientUnits="userSpaceOnUse">
<stop offset="0.01" stop-color="#FFFBB9"/>
<stop offset="0.19" stop-color="#FFF8B8"/>
<stop offset="0.33" stop-color="#FEEEB3"/>
<stop offset="0.45" stop-color="#FDDEAB"/>
<stop offset="0.57" stop-color="#FBC69F"/>
<stop offset="0.68" stop-color="#F9A891"/>
<stop offset="0.79" stop-color="#F7847F"/>
<stop offset="0.88" stop-color="#F4606E"/>
<stop offset="0.99" stop-color="#F27F5F"/>
</linearGradient>
<linearGradient id="paint31_linear_1422_614" x1="44.0648" y1="-19.0876" x2="44.7153" y2="78.6537" gradientUnits="userSpaceOnUse">
<stop offset="0.01" stop-color="#FFFBB9"/>
<stop offset="0.19" stop-color="#FFF8B8"/>
<stop offset="0.33" stop-color="#FEEEB3"/>
<stop offset="0.45" stop-color="#FDDEAB"/>
<stop offset="0.57" stop-color="#FBC69F"/>
<stop offset="0.68" stop-color="#F9A891"/>
<stop offset="0.79" stop-color="#F7847F"/>
<stop offset="0.88" stop-color="#F4606E"/>
<stop offset="0.99" stop-color="#F27F5F"/>
</linearGradient>
<linearGradient id="paint32_linear_1422_614" x1="-3.8722" y1="-19.7337" x2="-5.01752" y2="72.7115" gradientUnits="userSpaceOnUse">
<stop offset="0.01" stop-color="#FFFBB9"/>
<stop offset="0.19" stop-color="#FFF8B8"/>
<stop offset="0.33" stop-color="#FEEEB3"/>
<stop offset="0.45" stop-color="#FDDEAB"/>
<stop offset="0.57" stop-color="#FBC69F"/>
<stop offset="0.68" stop-color="#F9A891"/>
<stop offset="0.79" stop-color="#F7847F"/>
<stop offset="0.88" stop-color="#F4606E"/>
</linearGradient>
<linearGradient id="paint33_linear_1422_614" x1="-23.7275" y1="25.3756" x2="8.37078" y2="65.2265" gradientUnits="userSpaceOnUse">
<stop offset="0.01" stop-color="#FFFBB9"/>
<stop offset="0.19" stop-color="#FFF8B8"/>
<stop offset="0.33" stop-color="#FEEEB3"/>
<stop offset="0.45" stop-color="#FDDEAB"/>
<stop offset="0.57" stop-color="#FBC69F"/>
<stop offset="0.68" stop-color="#F9A891"/>
<stop offset="0.79" stop-color="#F7847F"/>
<stop offset="0.88" stop-color="#F4606E"/>
<stop offset="0.99" stop-color="#F27F5F"/>
</linearGradient>
<linearGradient id="paint34_linear_1422_614" x1="4.43501" y1="15.2485" x2="-3.60864" y2="63.4593" gradientUnits="userSpaceOnUse">
<stop offset="0.01" stop-color="#FFFBB9"/>
<stop offset="0.19" stop-color="#FFF8B8"/>
<stop offset="0.33" stop-color="#FEEEB3"/>
<stop offset="0.45" stop-color="#FDDEAB"/>
<stop offset="0.57" stop-color="#FBC69F"/>
<stop offset="0.68" stop-color="#F9A891"/>
<stop offset="0.79" stop-color="#F7847F"/>
<stop offset="0.88" stop-color="#F4606E"/>
<stop offset="0.99" stop-color="#F27F5F"/>
</linearGradient>
<linearGradient id="paint35_linear_1422_614" x1="12.5952" y1="21.0175" x2="12.9063" y2="69.9584" gradientUnits="userSpaceOnUse">
<stop offset="0.01" stop-color="#FFFBB9"/>
<stop offset="0.19" stop-color="#FFF8B8"/>
<stop offset="0.33" stop-color="#FEEEB3"/>
<stop offset="0.45" stop-color="#FDDEAB"/>
<stop offset="0.57" stop-color="#FBC69F"/>
<stop offset="0.68" stop-color="#F9A891"/>
<stop offset="0.79" stop-color="#F7847F"/>
<stop offset="0.88" stop-color="#F4606E"/>
<stop offset="0.99" stop-color="#F27F5F"/>
</linearGradient>
<linearGradient id="paint36_linear_1422_614" x1="7.89222" y1="34.812" x2="3.87701" y2="75.8533" gradientUnits="userSpaceOnUse">
<stop offset="0.01" stop-color="#FFFBB9"/>
<stop offset="0.19" stop-color="#FFF8B8"/>
<stop offset="0.33" stop-color="#FEEEB3"/>
<stop offset="0.45" stop-color="#FDDEAB"/>
<stop offset="0.57" stop-color="#FBC69F"/>
<stop offset="0.68" stop-color="#F9A891"/>
<stop offset="0.79" stop-color="#F7847F"/>
<stop offset="0.88" stop-color="#F4606E"/>
<stop offset="0.99" stop-color="#F27F5F"/>
</linearGradient>
<linearGradient id="paint37_linear_1422_614" x1="9.41918" y1="20.1467" x2="-2.39423" y2="41.7461" gradientUnits="userSpaceOnUse">
<stop offset="0.01" stop-color="#FFFBB9"/>
<stop offset="0.19" stop-color="#FFF8B8"/>
<stop offset="0.33" stop-color="#FEEEB3"/>
<stop offset="0.45" stop-color="#FDDEAB"/>
<stop offset="0.57" stop-color="#FBC69F"/>
<stop offset="0.68" stop-color="#F9A891"/>
<stop offset="0.79" stop-color="#F7847F"/>
<stop offset="0.88" stop-color="#F4606E"/>
<stop offset="0.99" stop-color="#F27F5F"/>
</linearGradient>
<linearGradient id="paint38_linear_1422_614" x1="-0.843932" y1="13.123" x2="-2.69621" y2="59.1551" gradientUnits="userSpaceOnUse">
<stop offset="0.01" stop-color="#FFFBB9"/>
<stop offset="0.19" stop-color="#FFF8B8"/>
<stop offset="0.33" stop-color="#FEEEB3"/>
<stop offset="0.45" stop-color="#FDDEAB"/>
<stop offset="0.57" stop-color="#FBC69F"/>
<stop offset="0.68" stop-color="#F9A891"/>
<stop offset="0.79" stop-color="#F7847F"/>
<stop offset="0.88" stop-color="#F4606E"/>
<stop offset="0.99" stop-color="#F27F5F"/>
</linearGradient>
<linearGradient id="paint39_linear_1422_614" x1="51.8855" y1="87.3384" x2="55.0814" y2="145.808" gradientUnits="userSpaceOnUse">
<stop stop-color="#1C7B9D"/>
<stop offset="0.37" stop-color="#036284"/>
<stop offset="0.99" stop-color="#024F6A"/>
</linearGradient>
<linearGradient id="paint40_linear_1422_614" x1="126.166" y1="167.639" x2="242.853" y2="135.898" gradientUnits="userSpaceOnUse">
<stop stop-color="#104360"/>
<stop offset="1" stop-color="#13817A"/>
</linearGradient>
<linearGradient id="paint41_linear_1422_614" x1="125.485" y1="-179.596" x2="124.43" y2="260.055" gradientUnits="userSpaceOnUse">
<stop stop-color="#2B33C4"/>
<stop offset="1" stop-color="white"/>
</linearGradient>
<linearGradient id="paint42_linear_1422_614" x1="110.794" y1="41.3895" x2="74.4711" y2="230.355" gradientUnits="userSpaceOnUse">
<stop stop-color="#2A96C1"/>
<stop offset="0.04" stop-color="#278AB2"/>
<stop offset="0.16" stop-color="#1D6683"/>
<stop offset="0.29" stop-color="#14475B"/>
<stop offset="0.42" stop-color="#0D2D3A"/>
<stop offset="0.55" stop-color="#071920"/>
<stop offset="0.69" stop-color="#030B0E"/>
<stop offset="0.84" stop-color="#010304"/>
<stop offset="1"/>
</linearGradient>
<linearGradient id="paint43_linear_1422_614" x1="60.5767" y1="61.4525" x2="20.5085" y2="153.715" gradientUnits="userSpaceOnUse">
<stop stop-color="#1E516D"/>
<stop offset="1" stop-color="#10ADCF" stop-opacity="0.47"/>
</linearGradient>
<linearGradient id="paint44_linear_1422_614" x1="69.4839" y1="53.378" x2="79.3169" y2="116.627" gradientUnits="userSpaceOnUse">
<stop offset="0.01" stop-color="#FFFBB9"/>
<stop offset="0.19" stop-color="#FFF8B8"/>
<stop offset="0.33" stop-color="#FEEEB3"/>
<stop offset="0.45" stop-color="#FDDEAB"/>
<stop offset="0.57" stop-color="#FBC69F"/>
<stop offset="0.68" stop-color="#F9A891"/>
<stop offset="0.79" stop-color="#F7847F"/>
<stop offset="0.88" stop-color="#F4606E"/>
</linearGradient>
<linearGradient id="paint45_linear_1422_614" x1="65.515" y1="72.6048" x2="65.0677" y2="140.124" gradientUnits="userSpaceOnUse">
<stop offset="0.01" stop-color="#FFFBB9"/>
<stop offset="0.19" stop-color="#FFF8B8"/>
<stop offset="0.33" stop-color="#FEEEB3"/>
<stop offset="0.45" stop-color="#FDDEAB"/>
<stop offset="0.57" stop-color="#FBC69F"/>
<stop offset="0.68" stop-color="#F9A891"/>
<stop offset="0.79" stop-color="#F7847F"/>
<stop offset="0.88" stop-color="#F4606E"/>
<stop offset="0.99" stop-color="#F27F5F"/>
</linearGradient>
<linearGradient id="paint46_linear_1422_614" x1="61.4842" y1="69.6395" x2="60.9943" y2="142.545" gradientUnits="userSpaceOnUse">
<stop offset="0.01" stop-color="#FFFBB9"/>
<stop offset="0.19" stop-color="#FFF8B8"/>
<stop offset="0.33" stop-color="#FEEEB3"/>
<stop offset="0.45" stop-color="#FDDEAB"/>
<stop offset="0.57" stop-color="#FBC69F"/>
<stop offset="0.68" stop-color="#F9A891"/>
<stop offset="0.79" stop-color="#F7847F"/>
<stop offset="0.88" stop-color="#F4606E"/>
<stop offset="0.99" stop-color="#F27F5F"/>
</linearGradient>
<linearGradient id="paint47_linear_1422_614" x1="96.895" y1="69.1576" x2="97.7577" y2="138.112" gradientUnits="userSpaceOnUse">
<stop offset="0.01" stop-color="#FFFBB9"/>
<stop offset="0.19" stop-color="#FFF8B8"/>
<stop offset="0.33" stop-color="#FEEEB3"/>
<stop offset="0.45" stop-color="#FDDEAB"/>
<stop offset="0.57" stop-color="#FBC69F"/>
<stop offset="0.68" stop-color="#F9A891"/>
<stop offset="0.79" stop-color="#F7847F"/>
<stop offset="0.88" stop-color="#F4606E"/>
</linearGradient>
<linearGradient id="paint48_linear_1422_614" x1="104.998" y1="87.8189" x2="110.692" y2="130.797" gradientUnits="userSpaceOnUse">
<stop offset="0.01" stop-color="#FFFBB9"/>
<stop offset="0.19" stop-color="#FFF8B8"/>
<stop offset="0.33" stop-color="#FEEEB3"/>
<stop offset="0.45" stop-color="#FDDEAB"/>
<stop offset="0.57" stop-color="#FBC69F"/>
<stop offset="0.68" stop-color="#F9A891"/>
<stop offset="0.79" stop-color="#F7847F"/>
<stop offset="0.88" stop-color="#F4606E"/>
<stop offset="0.99" stop-color="#F27F5F"/>
</linearGradient>
<linearGradient id="paint49_linear_1422_614" x1="111.562" y1="102.805" x2="87.5714" y2="132.302" gradientUnits="userSpaceOnUse">
<stop offset="0.01" stop-color="#FFFBB9"/>
<stop offset="0.19" stop-color="#FFF8B8"/>
<stop offset="0.33" stop-color="#FEEEB3"/>
<stop offset="0.45" stop-color="#FDDEAB"/>
<stop offset="0.57" stop-color="#FBC69F"/>
<stop offset="0.68" stop-color="#F9A891"/>
<stop offset="0.79" stop-color="#F7847F"/>
<stop offset="0.88" stop-color="#F4606E"/>
<stop offset="0.99" stop-color="#F27F5F"/>
</linearGradient>
<linearGradient id="paint50_linear_1422_614" x1="90.7585" y1="95.251" x2="96.8136" y2="131.192" gradientUnits="userSpaceOnUse">
<stop offset="0.01" stop-color="#FFFBB9"/>
<stop offset="0.19" stop-color="#FFF8B8"/>
<stop offset="0.33" stop-color="#FEEEB3"/>
<stop offset="0.45" stop-color="#FDDEAB"/>
<stop offset="0.57" stop-color="#FBC69F"/>
<stop offset="0.68" stop-color="#F9A891"/>
<stop offset="0.79" stop-color="#F7847F"/>
<stop offset="0.88" stop-color="#F4606E"/>
<stop offset="0.99" stop-color="#F27F5F"/>
</linearGradient>
<linearGradient id="paint51_linear_1422_614" x1="84.7306" y1="99.554" x2="84.4963" y2="136.059" gradientUnits="userSpaceOnUse">
<stop offset="0.01" stop-color="#FFFBB9"/>
<stop offset="0.19" stop-color="#FFF8B8"/>
<stop offset="0.33" stop-color="#FEEEB3"/>
<stop offset="0.45" stop-color="#FDDEAB"/>
<stop offset="0.57" stop-color="#FBC69F"/>
<stop offset="0.68" stop-color="#F9A891"/>
<stop offset="0.79" stop-color="#F7847F"/>
<stop offset="0.88" stop-color="#F4606E"/>
<stop offset="0.99" stop-color="#F27F5F"/>
</linearGradient>
<linearGradient id="paint52_linear_1422_614" x1="106.627" y1="99.8999" x2="106.392" y2="136.426" gradientUnits="userSpaceOnUse">
<stop offset="0.01" stop-color="#FFFBB9"/>
<stop offset="0.19" stop-color="#FFF8B8"/>
<stop offset="0.33" stop-color="#FEEEB3"/>
<stop offset="0.45" stop-color="#FDDEAB"/>
<stop offset="0.57" stop-color="#FBC69F"/>
<stop offset="0.68" stop-color="#F9A891"/>
<stop offset="0.79" stop-color="#F7847F"/>
<stop offset="0.88" stop-color="#F4606E"/>
<stop offset="0.99" stop-color="#F27F5F"/>
</linearGradient>
<linearGradient id="paint53_linear_1422_614" x1="88.2047" y1="109.843" x2="91.2283" y2="140.45" gradientUnits="userSpaceOnUse">
<stop offset="0.01" stop-color="#FFFBB9"/>
<stop offset="0.19" stop-color="#FFF8B8"/>
<stop offset="0.33" stop-color="#FEEEB3"/>
<stop offset="0.45" stop-color="#FDDEAB"/>
<stop offset="0.57" stop-color="#FBC69F"/>
<stop offset="0.68" stop-color="#F9A891"/>
<stop offset="0.79" stop-color="#F7847F"/>
<stop offset="0.88" stop-color="#F4606E"/>
<stop offset="0.99" stop-color="#F27F5F"/>
</linearGradient>
<linearGradient id="paint54_linear_1422_614" x1="87.0768" y1="98.9045" x2="95.9344" y2="114.943" gradientUnits="userSpaceOnUse">
<stop offset="0.01" stop-color="#FFFBB9"/>
<stop offset="0.19" stop-color="#FFF8B8"/>
<stop offset="0.33" stop-color="#FEEEB3"/>
<stop offset="0.45" stop-color="#FDDEAB"/>
<stop offset="0.57" stop-color="#FBC69F"/>
<stop offset="0.68" stop-color="#F9A891"/>
<stop offset="0.79" stop-color="#F7847F"/>
<stop offset="0.88" stop-color="#F4606E"/>
<stop offset="0.99" stop-color="#F27F5F"/>
</linearGradient>
<linearGradient id="paint55_linear_1422_614" x1="103.287" y1="98.6636" x2="103.042" y2="135.169" gradientUnits="userSpaceOnUse">
<stop offset="0.01" stop-color="#FFFBB9"/>
<stop offset="0.19" stop-color="#FFF8B8"/>
<stop offset="0.33" stop-color="#FEEEB3"/>
<stop offset="0.45" stop-color="#FDDEAB"/>
<stop offset="0.57" stop-color="#FBC69F"/>
<stop offset="0.68" stop-color="#F9A891"/>
<stop offset="0.79" stop-color="#F7847F"/>
<stop offset="0.88" stop-color="#F4606E"/>
<stop offset="0.99" stop-color="#F27F5F"/>
</linearGradient>
<linearGradient id="paint56_linear_1422_614" x1="94.6581" y1="93.6658" x2="96.0531" y2="128" gradientUnits="userSpaceOnUse">
<stop offset="0.01" stop-color="#FFFBB9"/>
<stop offset="0.19" stop-color="#FFF8B8"/>
<stop offset="0.33" stop-color="#FEEEB3"/>
<stop offset="0.45" stop-color="#FDDEAB"/>
<stop offset="0.57" stop-color="#FBC69F"/>
<stop offset="0.68" stop-color="#F9A891"/>
<stop offset="0.79" stop-color="#F7847F"/>
<stop offset="0.88" stop-color="#F4606E"/>
<stop offset="0.99" stop-color="#F27F5F"/>
</linearGradient>
<linearGradient id="paint57_linear_1422_614" x1="118.214" y1="131.889" x2="117.206" y2="129.396" gradientUnits="userSpaceOnUse">
<stop/>
<stop offset="0.21" stop-color="#010104"/>
<stop offset="0.41" stop-color="#03030F"/>
<stop offset="0.6" stop-color="#060722"/>
<stop offset="0.79" stop-color="#0B0D3C"/>
<stop offset="0.97" stop-color="#12155D"/>
<stop offset="1" stop-color="#131664"/>
</linearGradient>
<linearGradient id="paint58_linear_1422_614" x1="67.5161" y1="63.378" x2="57.6831" y2="126.627" gradientUnits="userSpaceOnUse">
<stop offset="0.01" stop-color="#FFFBB9"/>
<stop offset="0.19" stop-color="#FFF8B8"/>
<stop offset="0.33" stop-color="#FEEEB3"/>
<stop offset="0.45" stop-color="#FDDEAB"/>
<stop offset="0.57" stop-color="#FBC69F"/>
<stop offset="0.68" stop-color="#F9A891"/>
<stop offset="0.79" stop-color="#F7847F"/>
<stop offset="0.88" stop-color="#F4606E"/>
</linearGradient>
<linearGradient id="paint59_linear_1422_614" x1="71.485" y1="82.6048" x2="71.9323" y2="150.124" gradientUnits="userSpaceOnUse">
<stop offset="0.01" stop-color="#FFFBB9"/>
<stop offset="0.19" stop-color="#FFF8B8"/>
<stop offset="0.33" stop-color="#FEEEB3"/>
<stop offset="0.45" stop-color="#FDDEAB"/>
<stop offset="0.57" stop-color="#FBC69F"/>
<stop offset="0.68" stop-color="#F9A891"/>
<stop offset="0.79" stop-color="#F7847F"/>
<stop offset="0.88" stop-color="#F4606E"/>
<stop offset="0.99" stop-color="#F27F5F"/>
</linearGradient>
<linearGradient id="paint60_linear_1422_614" x1="75.5158" y1="79.6395" x2="76.0057" y2="152.545" gradientUnits="userSpaceOnUse">
<stop offset="0.01" stop-color="#FFFBB9"/>
<stop offset="0.19" stop-color="#FFF8B8"/>
<stop offset="0.33" stop-color="#FEEEB3"/>
<stop offset="0.45" stop-color="#FDDEAB"/>
<stop offset="0.57" stop-color="#FBC69F"/>
<stop offset="0.68" stop-color="#F9A891"/>
<stop offset="0.79" stop-color="#F7847F"/>
<stop offset="0.88" stop-color="#F4606E"/>
<stop offset="0.99" stop-color="#F27F5F"/>
</linearGradient>
<linearGradient id="paint61_linear_1422_614" x1="40.105" y1="79.1576" x2="39.2423" y2="148.112" gradientUnits="userSpaceOnUse">
<stop offset="0.01" stop-color="#FFFBB9"/>
<stop offset="0.19" stop-color="#FFF8B8"/>
<stop offset="0.33" stop-color="#FEEEB3"/>
<stop offset="0.45" stop-color="#FDDEAB"/>
<stop offset="0.57" stop-color="#FBC69F"/>
<stop offset="0.68" stop-color="#F9A891"/>
<stop offset="0.79" stop-color="#F7847F"/>
<stop offset="0.88" stop-color="#F4606E"/>
</linearGradient>
<linearGradient id="paint62_linear_1422_614" x1="32.0022" y1="97.8189" x2="26.3077" y2="140.797" gradientUnits="userSpaceOnUse">
<stop offset="0.01" stop-color="#FFFBB9"/>
<stop offset="0.19" stop-color="#FFF8B8"/>
<stop offset="0.33" stop-color="#FEEEB3"/>
<stop offset="0.45" stop-color="#FDDEAB"/>
<stop offset="0.57" stop-color="#FBC69F"/>
<stop offset="0.68" stop-color="#F9A891"/>
<stop offset="0.79" stop-color="#F7847F"/>
<stop offset="0.88" stop-color="#F4606E"/>
<stop offset="0.99" stop-color="#F27F5F"/>
</linearGradient>
<linearGradient id="paint63_linear_1422_614" x1="25.438" y1="112.805" x2="49.4286" y2="142.302" gradientUnits="userSpaceOnUse">
<stop offset="0.01" stop-color="#FFFBB9"/>
<stop offset="0.19" stop-color="#FFF8B8"/>
<stop offset="0.33" stop-color="#FEEEB3"/>
<stop offset="0.45" stop-color="#FDDEAB"/>
<stop offset="0.57" stop-color="#FBC69F"/>
<stop offset="0.68" stop-color="#F9A891"/>
<stop offset="0.79" stop-color="#F7847F"/>
<stop offset="0.88" stop-color="#F4606E"/>
<stop offset="0.99" stop-color="#F27F5F"/>
</linearGradient>
<linearGradient id="paint64_linear_1422_614" x1="46.2415" y1="105.251" x2="40.1864" y2="141.192" gradientUnits="userSpaceOnUse">
<stop offset="0.01" stop-color="#FFFBB9"/>
<stop offset="0.19" stop-color="#FFF8B8"/>
<stop offset="0.33" stop-color="#FEEEB3"/>
<stop offset="0.45" stop-color="#FDDEAB"/>
<stop offset="0.57" stop-color="#FBC69F"/>
<stop offset="0.68" stop-color="#F9A891"/>
<stop offset="0.79" stop-color="#F7847F"/>
<stop offset="0.88" stop-color="#F4606E"/>
<stop offset="0.99" stop-color="#F27F5F"/>
</linearGradient>
<linearGradient id="paint65_linear_1422_614" x1="52.2694" y1="109.554" x2="52.5037" y2="146.059" gradientUnits="userSpaceOnUse">
<stop offset="0.01" stop-color="#FFFBB9"/>
<stop offset="0.19" stop-color="#FFF8B8"/>
<stop offset="0.33" stop-color="#FEEEB3"/>
<stop offset="0.45" stop-color="#FDDEAB"/>
<stop offset="0.57" stop-color="#FBC69F"/>
<stop offset="0.68" stop-color="#F9A891"/>
<stop offset="0.79" stop-color="#F7847F"/>
<stop offset="0.88" stop-color="#F4606E"/>
<stop offset="0.99" stop-color="#F27F5F"/>
</linearGradient>
<linearGradient id="paint66_linear_1422_614" x1="30.3734" y1="109.9" x2="30.6077" y2="146.426" gradientUnits="userSpaceOnUse">
<stop offset="0.01" stop-color="#FFFBB9"/>
<stop offset="0.19" stop-color="#FFF8B8"/>
<stop offset="0.33" stop-color="#FEEEB3"/>
<stop offset="0.45" stop-color="#FDDEAB"/>
<stop offset="0.57" stop-color="#FBC69F"/>
<stop offset="0.68" stop-color="#F9A891"/>
<stop offset="0.79" stop-color="#F7847F"/>
<stop offset="0.88" stop-color="#F4606E"/>
<stop offset="0.99" stop-color="#F27F5F"/>
</linearGradient>
<linearGradient id="paint67_linear_1422_614" x1="48.7953" y1="119.843" x2="45.7717" y2="150.45" gradientUnits="userSpaceOnUse">
<stop offset="0.01" stop-color="#FFFBB9"/>
<stop offset="0.19" stop-color="#FFF8B8"/>
<stop offset="0.33" stop-color="#FEEEB3"/>
<stop offset="0.45" stop-color="#FDDEAB"/>
<stop offset="0.57" stop-color="#FBC69F"/>
<stop offset="0.68" stop-color="#F9A891"/>
<stop offset="0.79" stop-color="#F7847F"/>
<stop offset="0.88" stop-color="#F4606E"/>
<stop offset="0.99" stop-color="#F27F5F"/>
</linearGradient>
<linearGradient id="paint68_linear_1422_614" x1="49.9232" y1="108.904" x2="41.0656" y2="124.943" gradientUnits="userSpaceOnUse">
<stop offset="0.01" stop-color="#FFFBB9"/>
<stop offset="0.19" stop-color="#FFF8B8"/>
<stop offset="0.33" stop-color="#FEEEB3"/>
<stop offset="0.45" stop-color="#FDDEAB"/>
<stop offset="0.57" stop-color="#FBC69F"/>
<stop offset="0.68" stop-color="#F9A891"/>
<stop offset="0.79" stop-color="#F7847F"/>
<stop offset="0.88" stop-color="#F4606E"/>
<stop offset="0.99" stop-color="#F27F5F"/>
</linearGradient>
<linearGradient id="paint69_linear_1422_614" x1="33.7134" y1="108.664" x2="33.9584" y2="145.169" gradientUnits="userSpaceOnUse">
<stop offset="0.01" stop-color="#FFFBB9"/>
<stop offset="0.19" stop-color="#FFF8B8"/>
<stop offset="0.33" stop-color="#FEEEB3"/>
<stop offset="0.45" stop-color="#FDDEAB"/>
<stop offset="0.57" stop-color="#FBC69F"/>
<stop offset="0.68" stop-color="#F9A891"/>
<stop offset="0.79" stop-color="#F7847F"/>
<stop offset="0.88" stop-color="#F4606E"/>
<stop offset="0.99" stop-color="#F27F5F"/>
</linearGradient>
<linearGradient id="paint70_linear_1422_614" x1="42.3419" y1="103.666" x2="40.9469" y2="138" gradientUnits="userSpaceOnUse">
<stop offset="0.01" stop-color="#FFFBB9"/>
<stop offset="0.19" stop-color="#FFF8B8"/>
<stop offset="0.33" stop-color="#FEEEB3"/>
<stop offset="0.45" stop-color="#FDDEAB"/>
<stop offset="0.57" stop-color="#FBC69F"/>
<stop offset="0.68" stop-color="#F9A891"/>
<stop offset="0.79" stop-color="#F7847F"/>
<stop offset="0.88" stop-color="#F4606E"/>
<stop offset="0.99" stop-color="#F27F5F"/>
</linearGradient>
<linearGradient id="paint71_linear_1422_614" x1="18.7863" y1="141.889" x2="19.7935" y2="139.396" gradientUnits="userSpaceOnUse">
<stop/>
<stop offset="0.21" stop-color="#010104"/>
<stop offset="0.41" stop-color="#03030F"/>
<stop offset="0.6" stop-color="#060722"/>
<stop offset="0.79" stop-color="#0B0D3C"/>
<stop offset="0.97" stop-color="#12155D"/>
<stop offset="1" stop-color="#131664"/>
</linearGradient>
</defs>
</svg>
